<?xml version="1.0" encoding="iso-8859-1"?>
<!-- Generator: Adobe Illustrator 19.0.0, SVG Export Plug-In . SVG Version: 6.00 Build 0)  -->
<svg version="1.1" id="Capa_1" xmlns="http://www.w3.org/2000/svg" xmlns:xlink="http://www.w3.org/1999/xlink" x="0px" y="0px"
	 viewBox="0 0 511.992 511.992" style="enable-background:new 0 0 511.992 511.992;" xml:space="preserve">
<g>
	<path style="fill:#E4C05C;" d="M271.999,347.112v17.356H37.694v-17.356c0,0,20.306-72.808,92.073-84.957
		c6.929-1.251,13.959-1.861,21.001-1.822c12.261-0.079,24.463,1.706,36.187,5.294C248.655,284.37,271.999,347.112,271.999,347.112z"
		/>
	<path style="fill:#E4C05C;" d="M358.779,347.112v8.678h-86.78c0,0-135.723-94.85-142.232-93.635
		c23.639-24.227,56.328-37.473,90.164-36.534c28.421,0.388,55.726,11.125,76.8,30.199h0.087
		c9.385,8.121,17.932,17.162,25.513,26.988C337.518,302.372,349.794,324.031,358.779,347.112L358.779,347.112z"/>
	<path style="fill:#E4C05C;" d="M462.914,347.112v8.678H341.423c0,0-52.068-86.78-44.605-99.97
		c15.619-8.684,33.245-13.113,51.113-12.843C426.987,242.976,462.914,347.112,462.914,347.112z"/>
</g>
<g>
	<path style="fill:#BDC3C7;" d="M506.304,69.503c-0.069,14.335-11.698,25.926-26.034,25.947H227.307
		c-3.769,10.414-13.657,17.353-24.732,17.356H63.728c-4.793,0-8.678-3.885-8.678-8.678s3.885-8.678,8.678-8.678h95.458
		c4.787-0.014,8.664-3.891,8.678-8.678c0.039-2.261-0.875-4.433-2.517-5.988c-1.577-1.733-3.818-2.711-6.161-2.69H63.728
		c-4.793,0-8.678-3.885-8.678-8.678s3.885-8.678,8.678-8.678h95.458c4.787-0.014,8.664-3.891,8.678-8.678
		c0.039-2.261-0.875-4.433-2.517-5.988c-1.577-1.733-3.818-2.711-6.161-2.69H63.728c-4.793,0-8.678-3.885-8.678-8.678
		s3.885-8.678,8.678-8.678h138.847c11.207,0.009,21.159,7.167,24.732,17.79l252.008-0.434c13.758-0.2,25.411,10.099,26.902,23.778
		C506.289,67.939,506.318,68.721,506.304,69.503z"/>
	<path style="fill:#BDC3C7;" d="M484.262,372.538l-46.601,88.428c-16.475,31.379-48.995,51.032-84.437,51.026H138.705
		c-35.441,0.005-67.961-19.647-84.437-51.026l-46.6-88.428c-2.818-5.38-2.621-11.841,0.519-17.039s8.768-8.379,14.841-8.388h445.874
		c6.073,0.009,11.7,3.189,14.841,8.388C486.883,360.697,487.08,367.158,484.262,372.538z"/>
</g>
<g>
	<path style="fill:#F9EAB0;" d="M233.469,347.112H74.662c12.282-31.327,42.457-51.971,76.106-52.068
		C197.108,295.044,222.795,328.454,233.469,347.112z"/>
	<path style="fill:#F9EAB0;" d="M321.116,347.112h-49.117c0,0-23.344-62.742-85.044-81.486c10.621-3.588,21.766-5.378,32.976-5.294
		C274.776,260.332,308.967,320.991,321.116,347.112z"/>
	<path style="fill:#F9EAB0;" d="M425.252,347.112h-66.473c-8.984-23.08-21.261-44.739-36.447-64.304l1.736-1.388
		c7.692-2.564,15.757-3.825,23.864-3.732C388.023,277.688,414.838,324.809,425.252,347.112z"/>
</g>
<g>
	<path style="fill:#E4C05C;" d="M115.795,130.167c-3.811-0.004-7.174-2.49-8.297-6.131L72.787,11.222
		c-1.401-4.58,1.171-9.429,5.749-10.836s9.43,1.159,10.844,5.734l34.712,112.814c0.802,2.632,0.311,5.489-1.324,7.703
		C121.133,128.85,118.547,130.159,115.795,130.167z"/>
	<path style="fill:#E4C05C;" d="M237.287,234.298c-2.302,0.001-4.509-0.914-6.137-2.541c-1.628-1.628-2.542-3.835-2.541-6.137
		c-0.536-12.15-8.543-22.697-20.102-26.479c-26.839-8.949-46.941-39.153-54.339-51.725c-6.853-11.79-12.311-24.338-16.262-37.39
		l-30.407-98.805c-1.401-4.58,1.171-9.429,5.749-10.836s9.43,1.159,10.844,5.734l30.407,98.809
		c3.555,11.76,8.467,23.066,14.636,33.691c4.992,8.492,22.991,36.767,44.864,44.055c18.65,6.135,31.441,23.319,31.966,42.945
		c0.001,2.302-0.913,4.509-2.541,6.137C241.796,233.385,239.589,234.299,237.287,234.298z"/>
</g>
<g>
</g>
<g>
</g>
<g>
</g>
<g>
</g>
<g>
</g>
<g>
</g>
<g>
</g>
<g>
</g>
<g>
</g>
<g>
</g>
<g>
</g>
<g>
</g>
<g>
</g>
<g>
</g>
<g>
</g>
</svg>
