<?xml version="1.0" encoding="iso-8859-1"?>
<!-- Generator: Adobe Illustrator 19.0.0, SVG Export Plug-In . SVG Version: 6.00 Build 0)  -->
<svg version="1.1" id="Capa_1" xmlns="http://www.w3.org/2000/svg" xmlns:xlink="http://www.w3.org/1999/xlink" x="0px" y="0px"
	 viewBox="0 0 511.795 511.795" style="enable-background:new 0 0 511.795 511.795;" xml:space="preserve">
<g>
	<path style="fill:#943F51;" d="M290.502,49.229l8.651-27.012c2.458-6.44,0.621-13.729-4.596-18.234
		c-5.217-4.505-12.696-5.262-18.709-1.893L263.93,9.24c-4.931,2.985-11.103,3.019-16.066,0.088l-11.829-7.062
		c-6.061-3.272-13.514-2.449-18.715,2.065s-7.064,11.778-4.678,18.238l8.386,26.836"/>
	<path style="fill:#E76573;" d="M370.656,291.105V158.691c0-63.379-51.379-114.759-114.759-114.759S141.139,95.312,141.139,158.691
		v132.414"/>
	<circle style="fill:#F5A585;" cx="255.897" cy="291.105" r="114.759"/>
	<g>
		<circle style="fill:#943F51;" cx="277.966" cy="233.726" r="22.069"/>
		<circle style="fill:#943F51;" cx="207.346" cy="269.036" r="22.069"/>
		<circle style="fill:#943F51;" cx="277.966" cy="339.657" r="22.069"/>
	</g>
	<g>
		<path style="fill:#6D5A61;" d="M326.518,299.933c-2.342,0.003-4.588-0.928-6.241-2.586l-8.828-8.828
			c-3.394-3.456-3.369-9.001,0.056-12.426c3.425-3.425,8.97-3.45,12.426-0.056l8.828,8.828c2.524,2.525,3.279,6.321,1.913,9.619
			C333.306,297.781,330.088,299.932,326.518,299.933z"/>
		<path style="fill:#6D5A61;" d="M255.897,299.933c-2.348,0.023-4.607-0.9-6.267-2.56c-1.66-1.66-2.583-3.919-2.56-6.267
			c0.013-2.341,0.93-4.587,2.56-6.268c2.525-2.546,6.341-3.312,9.653-1.937c3.312,1.375,5.463,4.618,5.442,8.204
			c-0.014,1.153-0.254,2.293-0.707,3.353c-0.449,1.069-1.075,2.054-1.854,2.914C260.502,299.03,258.245,299.952,255.897,299.933
			L255.897,299.933z"/>
		<path style="fill:#6D5A61;" d="M202.932,352.898c-3.57-0.001-6.788-2.152-8.154-5.45s-0.611-7.094,1.913-9.619l8.828-8.828
			c3.456-3.394,9.001-3.369,12.426,0.056c3.425,3.425,3.45,8.97,0.056,12.426l-8.828,8.828
			C207.52,351.97,205.274,352.901,202.932,352.898z"/>
		<path style="fill:#6D5A61;" d="M229.415,229.312c-2.34-0.017-4.585-0.933-6.268-2.56c-1.661-1.66-2.584-3.919-2.56-6.268
			c-0.032-1.158,0.21-2.307,0.707-3.353c0.447-1.07,1.074-2.056,1.854-2.914c3.539-3.267,8.995-3.267,12.534,0
			c0.799,0.844,1.428,1.833,1.854,2.914c1.409,3.284,0.675,7.095-1.854,9.621C233.998,228.376,231.754,229.292,229.415,229.312z"/>
		<path style="fill:#6D5A61;" d="M326.518,344.071c-1.153-0.014-2.293-0.254-3.353-0.707c-1.07-0.447-2.056-1.074-2.914-1.854
			c-0.776-0.881-1.431-1.86-1.948-2.914c-0.422-1.067-0.63-2.206-0.612-3.353c0-4.875,3.952-8.828,8.828-8.828
			s8.828,3.952,8.828,8.828c-0.014,1.153-0.254,2.293-0.707,3.353c-0.449,1.069-1.075,2.054-1.854,2.914
			C331.123,343.168,328.866,344.09,326.518,344.071z"/>
	</g>
	<path style="fill:#E76573;" d="M370.656,458.829v35.31c0,9.71-51.377,17.655-114.759,17.655s-114.759-7.945-114.759-17.655v-35.31
		c0-9.711,51.377-17.655,114.759-17.655S370.656,449.118,370.656,458.829z"/>
	<path style="fill:#F5A585;" d="M370.656,458.829c0,9.71-51.377,17.655-114.759,17.655h-0.265
		c-63.294,0-114.494-7.945-114.494-17.655s51.377-17.655,114.759-17.655S370.656,449.118,370.656,458.829z"/>
</g>
<g>
</g>
<g>
</g>
<g>
</g>
<g>
</g>
<g>
</g>
<g>
</g>
<g>
</g>
<g>
</g>
<g>
</g>
<g>
</g>
<g>
</g>
<g>
</g>
<g>
</g>
<g>
</g>
<g>
</g>
</svg>
