<?xml version="1.0" encoding="iso-8859-1"?>
<!-- Generator: Adobe Illustrator 19.0.0, SVG Export Plug-In . SVG Version: 6.00 Build 0)  -->
<svg version="1.1" id="Capa_1" xmlns="http://www.w3.org/2000/svg" xmlns:xlink="http://www.w3.org/1999/xlink" x="0px" y="0px"
	 viewBox="0 0 512 512" style="enable-background:new 0 0 512 512;" xml:space="preserve">
<g>
	<path style="fill:#ED634C;" d="M414.897,70.621v370.759C414.897,480.397,343.746,512,256,512S97.103,480.397,97.103,441.379V70.621
		H414.897z"/>
	<path style="fill:#CD4F38;" d="M414.897,238.345v203.034C414.897,480.397,343.746,512,256,512S97.103,480.397,97.103,441.379
		V238.345c0,19.332,17.567,36.899,46.08,49.611h225.633C397.33,275.244,414.897,257.677,414.897,238.345z"/>
	<ellipse style="fill:#A5B4B4;" cx="256" cy="70.621" rx="158.897" ry="70.621"/>
	<ellipse style="fill:#919D9E;" cx="256" cy="70.621" rx="114.759" ry="35.31"/>
	<g>
		<path style="fill:#944143;" d="M238.362,484.983c-0.181,0-0.371-0.004-0.56-0.018c-3.069-0.19-6.112-0.427-9.103-0.707
			c-3.144-0.287-5.896-2.232-7.216-5.1c-1.32-2.868-1.007-6.223,0.82-8.798c1.827-2.575,4.891-3.978,8.034-3.679
			c2.819,0.263,5.675,0.484,8.569,0.664c4.754,0.301,8.412,4.32,8.266,9.082C247.025,481.188,243.126,484.974,238.362,484.983
			L238.362,484.983z"/>
		<path style="fill:#944143;" d="M194.172,478.422c-0.72,0.001-1.438-0.086-2.138-0.259c-42.862-10.638-68.448-30.987-68.448-54.44
			c0-4.875,3.952-8.828,8.828-8.828c4.875,0,8.828,3.952,8.828,8.828c0,14.142,22.121,29.134,55.052,37.302
			c4.328,1.075,7.174,5.21,6.635,9.636C202.388,475.089,198.632,478.418,194.172,478.422L194.172,478.422z"/>
	</g>
	<circle style="fill:#445C71;" cx="256" cy="308.966" r="114.759"/>
	<path style="fill:#A5B4B4;" d="M291.31,79.448H220.69c-4.875,0-8.828-3.952-8.828-8.828s3.952-8.828,8.828-8.828h70.621
		c4.875,0,8.828,3.952,8.828,8.828S296.186,79.448,291.31,79.448z"/>
	<ellipse style="fill:#ED634C;" cx="256" cy="331.034" rx="61.793" ry="57.379"/>
	<path style="fill:#FFFFFF;" d="M256,361.931c-18.246,1.117-33.993-12.659-35.31-30.892c0-4.875,3.952-8.828,8.828-8.828
		s8.828,3.952,8.828,8.828c0,7.177,8.086,13.237,17.655,13.237c4.875,0,8.828,3.952,8.828,8.828S260.875,361.931,256,361.931z"/>
	<g>
		<path style="fill:#23B972;" d="M256,282.483c-2.341,0.001-4.587-0.929-6.243-2.585c-1.656-1.656-2.585-3.901-2.585-6.243v-44.138
			c0-4.875,3.952-8.828,8.828-8.828s8.828,3.952,8.828,8.828v44.138c0.001,2.341-0.929,4.587-2.585,6.243
			C260.587,281.553,258.341,282.483,256,282.483z"/>
		<path style="fill:#23B972;" d="M255.991,282.483c-1.907,0.003-3.763-0.618-5.284-1.767l-35.31-26.483
			c-2.522-1.891-3.844-4.984-3.468-8.114c0.376-3.13,2.394-5.821,5.293-7.06c2.899-1.239,6.239-0.837,8.761,1.054l35.31,26.483
			c3.041,2.28,4.282,6.25,3.079,9.856C263.168,280.056,259.792,282.486,255.991,282.483L255.991,282.483z"/>
		<path style="fill:#23B972;" d="M256.009,282.483c-3.801,0.004-7.177-2.427-8.38-6.032c-1.203-3.605,0.037-7.576,3.079-9.856
			l35.31-26.483c2.522-1.891,5.862-2.293,8.761-1.054c2.899,1.239,4.917,3.93,5.293,7.06c0.376,3.13-0.945,6.223-3.468,8.114
			l-35.31,26.483C259.772,281.865,257.916,282.485,256.009,282.483L256.009,282.483z"/>
	</g>
</g>
<g>
</g>
<g>
</g>
<g>
</g>
<g>
</g>
<g>
</g>
<g>
</g>
<g>
</g>
<g>
</g>
<g>
</g>
<g>
</g>
<g>
</g>
<g>
</g>
<g>
</g>
<g>
</g>
<g>
</g>
</svg>
