<?xml version="1.0" encoding="iso-8859-1"?>
<!-- Generator: Adobe Illustrator 19.0.0, SVG Export Plug-In . SVG Version: 6.00 Build 0)  -->
<svg version="1.1" id="Capa_1" xmlns="http://www.w3.org/2000/svg" xmlns:xlink="http://www.w3.org/1999/xlink" x="0px" y="0px"
	 viewBox="0 0 512 512" style="enable-background:new 0 0 512 512;" xml:space="preserve">
<path style="fill:#E4C05C;" d="M512,211.862l-0.736,22.805l-509.057-5.15L0,211.862l1.148-5.121
	c7.762-34.162,23.73-65.918,46.521-92.523c22.615-26.452,51.426-46.895,83.862-59.504c6.206-2.448,13.132-2.321,19.244,0.353
	l42.522,18.447c7.005,3.078,11.121,10.426,10.088,18.007c-0.698,5.575-0.347,11.231,1.033,16.677
	c4.146,15.964,16.845,28.285,32.926,31.948s32.864-1.944,43.514-14.537c4.875-6.091,13.183-8.239,20.399-5.272L512,211.862z"/>
<path style="fill:#F3D55B;" d="M476.69,282.483c0.008,16.639,11.628,31.017,27.895,34.516c4.237,0.776,7.34,4.432,7.415,8.739
	v106.814c0.009,7.027-2.778,13.768-7.746,18.736c-4.969,4.969-11.71,7.756-18.736,7.746H352.221
	c-4.291-0.036-7.956-3.108-8.74-7.327c-3.447-16.312-17.843-27.983-34.516-27.983c-16.672,0-31.068,11.672-34.516,27.983
	c-0.784,4.219-4.448,7.291-8.739,7.327H26.483c-7.027,0.009-13.768-2.778-18.737-7.746C2.778,446.32-0.009,439.578,0,432.552
	v-220.69h512v27.366c-0.075,4.307-3.178,7.964-7.415,8.739C488.318,251.466,476.698,265.843,476.69,282.483z"/>
<circle style="fill:#B19046;" cx="450.21" cy="397.24" r="26.483"/>
<circle style="fill:#F9EAB0;" cx="194.21" cy="335.45" r="44.14"/>
<g>
	<circle style="fill:#B19046;" cx="326.62" cy="291.31" r="35.31"/>
	<circle style="fill:#B19046;" cx="70.62" cy="291.31" r="17.655"/>
	<circle style="fill:#B19046;" cx="88.28" cy="397.24" r="17.655"/>
</g>
<g>
	<path style="fill:#F9EAB0;" d="M300.138,388.414c-1.155-0.014-2.296-0.254-3.358-0.707c-2.215-0.807-3.96-2.552-4.767-4.767
		c-0.937-2.138-0.937-4.569,0-6.707c0.448-1.071,1.076-2.056,1.857-2.914c3.539-3.267,8.995-3.267,12.534,0
		c0.779,0.859,1.406,1.844,1.854,2.914c0.495,1.047,0.737,2.196,0.707,3.354c-0.01,2.342-0.928,4.588-2.56,6.268
		c-0.859,0.779-1.844,1.406-2.914,1.854C302.431,388.16,301.291,388.4,300.138,388.414L300.138,388.414z"/>
	<path style="fill:#F9EAB0;" d="M211.862,264.827c-2.952,0.028-5.719-1.436-7.358-3.892c-1.638-2.456-1.927-5.573-0.767-8.289
		c0.448-1.07,1.076-2.056,1.857-2.914c0.828-0.817,1.819-1.449,2.909-1.854c3.288-1.387,7.088-0.655,9.625,1.854
		c0.797,0.845,1.426,1.834,1.854,2.914c1.163,2.714,0.876,5.833-0.762,8.29C217.583,263.393,214.815,264.857,211.862,264.827
		L211.862,264.827z"/>
	<path style="fill:#F9EAB0;" d="M423.724,308.965c-2.952,0.028-5.719-1.436-7.358-3.892s-1.927-5.573-0.767-8.289
		c0.427-1.081,1.058-2.07,1.857-2.914c2.063-2.143,5.078-3.084,7.994-2.493c2.916,0.59,5.327,2.63,6.394,5.407
		c1.163,2.714,0.876,5.832-0.762,8.289C429.445,307.53,426.677,308.994,423.724,308.965L423.724,308.965z"/>
</g>
<g>
</g>
<g>
</g>
<g>
</g>
<g>
</g>
<g>
</g>
<g>
</g>
<g>
</g>
<g>
</g>
<g>
</g>
<g>
</g>
<g>
</g>
<g>
</g>
<g>
</g>
<g>
</g>
<g>
</g>
</svg>
