<?xml version="1.0" encoding="iso-8859-1"?>
<!-- Generator: Adobe Illustrator 19.0.0, SVG Export Plug-In . SVG Version: 6.00 Build 0)  -->
<svg version="1.1" id="Capa_1" xmlns="http://www.w3.org/2000/svg" xmlns:xlink="http://www.w3.org/1999/xlink" x="0px" y="0px"
	 viewBox="0 0 512.004 512.004" style="enable-background:new 0 0 512.004 512.004;" xml:space="preserve">
<path style="fill:#ECF0F1;" d="M353.105,8.828v52.966H158.898V8.828c0.015-4.869,3.958-8.813,8.828-8.828h176.552
	C349.147,0.015,353.09,3.958,353.105,8.828z"/>
<path style="fill:#BDC3C7;" d="M406.07,179.377v306.141H300.139V179.377c0-3.972-18.538-16.684-17.655-20.48l105.931-17.655
	l16.331,26.483C405.632,171.545,406.076,175.455,406.07,179.377L406.07,179.377z"/>
<path style="fill:#ECF0F1;" d="M301.464,167.724c-0.886,3.821-1.33,7.73-1.324,11.652v288.486H105.933V179.377
	c-0.006-3.922,0.438-7.832,1.324-11.652l7.503-8.828h185.379L301.464,167.724z"/>
<path style="fill:#BDC3C7;" d="M404.746,167.724H301.464c0.794-3.619-2.913-111.316-1.324-114.759h52.966l48.11,104.166
	C402.773,160.524,403.957,164.076,404.746,167.724L404.746,167.724z"/>
<path style="fill:#4482C3;" d="M300.139,441.379V512H123.588c-9.739-0.029-17.627-7.916-17.655-17.655V247.172
	c25.758-0.015,50.465,10.211,68.679,28.425s28.439,42.921,28.425,68.679c-0.015,25.758,10.211,50.465,28.425,68.679
	S274.382,441.394,300.139,441.379z"/>
<path style="fill:#E6E7E8;" d="M353.105,52.966l-48.11,104.166c-1.558,3.393-2.742,6.944-3.531,10.593H107.257
	c0.789-3.649,1.973-7.201,3.531-10.593l48.11-104.166C158.898,52.966,353.105,52.966,353.105,52.966z"/>
<path style="fill:#285680;" d="M406.07,485.517v9.71c-0.262,9.499-8.155,16.998-17.655,16.772h-88.276v-70.621
	c34.221,0.012,67.358,12.005,93.661,33.898L406.07,485.517z"/>
<path style="fill:#BDC3C7;" d="M256.001,119.172V97.103H185.38v22.069c0,0,5.149,8.828,33.1,8.828
	C231.596,128.959,244.69,125.879,256.001,119.172L256.001,119.172z"/>
<ellipse style="fill:#4482C3;" cx="220.689" cy="97.1" rx="35.31" ry="17.655"/>
<g>
</g>
<g>
</g>
<g>
</g>
<g>
</g>
<g>
</g>
<g>
</g>
<g>
</g>
<g>
</g>
<g>
</g>
<g>
</g>
<g>
</g>
<g>
</g>
<g>
</g>
<g>
</g>
<g>
</g>
</svg>
