<?xml version="1.0" encoding="iso-8859-1"?>
<!-- Generator: Adobe Illustrator 19.0.0, SVG Export Plug-In . SVG Version: 6.00 Build 0)  -->
<svg version="1.1" id="Capa_1" xmlns="http://www.w3.org/2000/svg" xmlns:xlink="http://www.w3.org/1999/xlink" x="0px" y="0px"
	 viewBox="0 0 503.3 503.3" style="enable-background:new 0 0 503.3 503.3;" xml:space="preserve">
<path style="fill:#F3D55B;" d="M347.542,275.738c2.359,2.367,4.85,4.598,7.463,6.682l-0.347,0.434l-71.767,71.767l-0.434,0.347
	c-2.083-2.517-4.252-4.946-6.682-7.376c-4.433-4.482-50.159-53.283-50.159-53.283l0,0l-17.356-17.356
	c0,0-50.304-47.234-55.279-52.155c-1.475-1.475-3.037-2.864-4.513-4.252l0.174-0.174l7.984-7.897l55.799-55.886l8.157-8.157
	l4.252,4.599L347.542,275.738z"/>
<path style="fill:#F9EAB0;" d="M491.25,243.109l-16.401,16.401c-23.691,23.691-50.505,38.877-76.626,38.877
	c-1.302,0-2.517,0-43.216-15.967c-2.613-2.084-5.104-4.315-7.463-6.682c-7.043-7.069-15.902-12.054-25.6-14.405
	c-15.273-4.686-36.534-6.856-51.981,8.591s-13.277,36.708-8.591,52.068c2.356,9.696,7.341,18.554,14.405,25.6
	c2.43,2.43,4.599,4.86,6.682,7.376c30.546,37.749,14.232,82.614-22.997,119.843l-16.315,16.401
	c-7.325,7.571-17.36,11.917-27.893,12.079c-10.533,0.163-20.698-3.871-28.253-11.212c-6.008-6.471-9.515-14.869-9.893-23.691
	c-19.275-0.877-34.702-16.305-35.58-35.58c-19.242-0.844-34.649-16.251-35.493-35.493c-9.32-0.429-18.142-4.329-24.732-10.934
	c-6.593-6.554-10.467-15.357-10.847-24.645c-19.275-0.844-34.696-16.303-35.493-35.58c-8.86-0.32-17.305-3.834-23.778-9.893
	c-7.321-7.548-11.342-17.696-11.18-28.21s4.497-20.532,12.047-27.85l16.401-16.401c38.183-38.183,81.833-56.754,120.016-23.257
	c1.475,1.388,3.037,2.777,4.513,4.252c7.928,7.941,17.666,13.837,28.377,17.182c15.273,4.599,36.534,6.856,51.981-8.678
	c15.447-15.447,13.277-36.708,8.591-51.981c-3.26-10.704-9.135-20.427-17.096-28.29l-4.252-4.599
	c-16.575-30.72-17.443-36.881-17.443-43.129c0-26.034,16.401-52.588,40.7-76.887L260.155,12.1
	c15.25-15.747,40.37-16.174,56.146-0.955c5.996,6.513,9.5,14.934,9.893,23.778c9.289,0.38,18.091,4.254,24.645,10.847
	c6.587,6.566,10.487,15.355,10.934,24.645c9.294,0.431,18.089,4.332,24.645,10.934c6.612,6.541,10.489,15.352,10.847,24.645
	c19.31,0.797,34.782,16.269,35.58,35.58c19.242,0.844,34.649,16.251,35.493,35.493c8.861,0.392,17.291,3.931,23.778,9.98
	c7.321,7.548,11.342,17.696,11.18,28.21C503.134,225.772,498.8,235.791,491.25,243.109z"/>
<g>
	<path style="fill:#E4C05C;" d="M184.532,388.461c-3.475,0.003-6.616-2.068-7.983-5.263l-3.347-7.814
		c-8.692-20.376-24.921-36.605-45.297-45.297l-7.809-3.347c-4.404-1.886-6.446-6.986-4.559-11.39
		c1.886-4.404,6.986-6.446,11.39-4.559l7.814,3.347c24.481,10.437,43.979,29.934,54.415,54.415l3.352,7.814
		c0.906,2.115,0.934,4.504,0.078,6.641s-2.526,3.845-4.642,4.749C186.867,388.224,185.706,388.464,184.532,388.461L184.532,388.461z
		"/>
	<path style="fill:#E4C05C;" d="M379.787,193.198c-1.173,0.002-2.334-0.237-3.411-0.703l-7.814-3.347
		c-24.478-10.44-43.975-29.937-54.415-54.415l-3.352-7.814c-1.886-4.407,0.157-9.508,4.564-11.394
		c4.407-1.886,9.508,0.157,11.394,4.564l3.347,7.814c8.694,20.374,24.922,36.603,45.297,45.297l7.809,3.347
		c3.789,1.621,5.915,5.684,5.086,9.722C387.463,190.305,383.908,193.202,379.787,193.198L379.787,193.198z"/>
</g>
<g>
</g>
<g>
</g>
<g>
</g>
<g>
</g>
<g>
</g>
<g>
</g>
<g>
</g>
<g>
</g>
<g>
</g>
<g>
</g>
<g>
</g>
<g>
</g>
<g>
</g>
<g>
</g>
<g>
</g>
</svg>
