<?xml version="1.0" encoding="iso-8859-1"?>
<!-- Generator: Adobe Illustrator 19.0.0, SVG Export Plug-In . SVG Version: 6.00 Build 0)  -->
<svg version="1.1" id="Capa_1" xmlns="http://www.w3.org/2000/svg" xmlns:xlink="http://www.w3.org/1999/xlink" x="0px" y="0px"
	 viewBox="0 0 511.996 511.996" style="enable-background:new 0 0 511.996 511.996;" xml:space="preserve">
<path style="fill:#BDC3C7;" d="M446.447,87.549l62.945-62.945c2.179-2.178,3.074-5.33,2.366-8.328s-2.918-5.417-5.841-6.391
	L487.06,3.599c-3.194-1.065-6.716-0.233-9.097,2.147l-56.659,56.659L446.447,87.549z"/>
<rect x="388.072" y="61.428" transform="matrix(0.7071 0.7071 -0.7071 0.7071 188.013 -265.6974)" style="fill:#A5A5A4;" width="53.319" height="65.349"/>
<path style="fill:#E4C05C;" d="M374.755,184.388l28.126-28.13l-50.286-50.286l-28.125,28.125
	c-7.818,7.818-18.705,11.759-29.716,10.758l0,0c-32.798-2.983-65.227,8.756-88.515,32.044L5.971,377.166
	c-7.961,7.961-7.961,20.869,0,28.83l96.886,96.886c7.961,7.961,20.869,7.961,28.83,0l200.269-200.269
	c23.285-23.285,35.025-55.709,32.045-88.504L364,214.098C362.999,203.09,366.94,192.205,374.755,184.388z"/>
<path style="fill:#F9EAB0;" d="M306.81,286.3c-3.57-0.001-6.788-2.152-8.154-5.45s-0.611-7.094,1.913-9.619
	c13.997-13.957,21.044-33.426,19.224-53.108c-0.295-3.146,1.114-6.21,3.694-8.034c2.58-1.824,5.939-2.13,8.806-0.803
	c2.868,1.327,4.807,4.086,5.086,7.234c2.296,24.902-6.622,49.533-24.328,67.194C311.398,285.372,309.152,286.303,306.81,286.3z"/>
<path style="fill:#7F8C8D;" d="M371.776,80.369l56.678,56.678c5.171,5.171,5.171,13.555,0,18.726l-12.734,12.734
	c-5.171,5.171-13.555,5.171-18.726,0l-56.678-56.678c-5.171-5.171-5.171-13.555,0-18.726l12.734-12.734
	C358.22,75.197,366.604,75.197,371.776,80.369z"/>
<path style="fill:#B19046;" d="M236.656,259.495l69.232,69.232L167.599,467.015l-69.232-69.232c-6.895-6.895-6.895-18.073,0-24.968
	l113.32-113.32C218.582,252.6,229.761,252.6,236.656,259.495z"/>
<path style="fill:#F9EAB0;" d="M79.56,438.123c-2.342,0.003-4.588-0.928-6.241-2.586L41.888,404.11
	c-2.23-2.23-3.101-5.48-2.285-8.526s3.195-5.425,6.241-6.241s6.296,0.055,8.526,2.285l31.431,31.427
	c2.524,2.525,3.279,6.321,1.913,9.619C86.348,435.971,83.13,438.122,79.56,438.123L79.56,438.123z"/>
<g>
</g>
<g>
</g>
<g>
</g>
<g>
</g>
<g>
</g>
<g>
</g>
<g>
</g>
<g>
</g>
<g>
</g>
<g>
</g>
<g>
</g>
<g>
</g>
<g>
</g>
<g>
</g>
<g>
</g>
</svg>
