<?xml version="1.0" encoding="iso-8859-1"?>
<!-- Generator: Adobe Illustrator 19.0.0, SVG Export Plug-In . SVG Version: 6.00 Build 0)  -->
<svg version="1.1" id="Capa_1" xmlns="http://www.w3.org/2000/svg" xmlns:xlink="http://www.w3.org/1999/xlink" x="0px" y="0px"
	 viewBox="0 0 512 512" style="enable-background:new 0 0 512 512;" xml:space="preserve">
<g>
	<rect x="114.759" y="26.483" style="fill:#5496CE;" width="282.483" height="459.034"/>
	<rect x="114.759" y="176.552" style="fill:#36B6D6;" width="282.483" height="150.069"/>
	<ellipse style="fill:#394F63;" cx="256" cy="249.733" rx="105.931" ry="134.63"/>
	<g>
		<path style="fill:#C9CED1;" d="M414.897,494.345c-0.071,9.721-7.934,17.584-17.655,17.655H114.759
			c-9.739-0.029-17.627-7.916-17.655-17.655c0.07-9.721,7.934-17.585,17.655-17.655h282.483
			C406.98,476.718,414.868,484.606,414.897,494.345z"/>
		<path style="fill:#C9CED1;" d="M414.897,17.655c0.025,4.684-1.855,9.177-5.209,12.447c-3.27,3.353-7.763,5.233-12.446,5.208
			H114.759c-9.739-0.029-17.627-7.916-17.655-17.655c-0.025-4.684,1.856-9.177,5.209-12.447c3.27-3.353,7.762-5.233,12.446-5.208
			h282.483C406.98,0.029,414.868,7.917,414.897,17.655z"/>
	</g>
	<path style="fill:#EC9130;" d="M278.069,249.741c0,22.783,17.092,20.215,24.758,30.378c11.456,15.189,5.493,41.604-6.524,52.382
		c-10.599,10.023-24.565,15.719-39.15,15.967c-39.639,0-71.773-44.202-71.773-98.727s32.134-98.728,71.773-98.728
		c14.586,0.249,28.551,5.944,39.15,15.967c11.575,10.382,17.98,37.194,6.524,52.382
		C294.783,230.028,278.069,226.958,278.069,249.741z"/>
	<g>
		<path style="fill:#F6AB27;" d="M221.138,249.599c-0.241,0-0.483-0.009-0.724-0.03c-2.334-0.189-4.498-1.299-6.015-3.084
			c-1.517-1.785-2.262-4.099-2.072-6.434c2.569-31.465,15.103-55.595,31.931-61.47c2.977-1.041,6.283-0.415,8.673,1.643
			c2.39,2.057,3.501,5.233,2.914,8.332c-0.587,3.098-2.782,5.648-5.759,6.689c-8.181,2.858-18.017,20.034-20.155,46.246
			C229.554,246.069,225.731,249.594,221.138,249.599z"/>
		<path style="fill:#F6AB27;" d="M229.492,302.086c-3.727-0.002-7.051-2.342-8.31-5.849c-1.987-5.622-3.608-11.367-4.853-17.198
			c-1.028-4.763,1.996-9.458,6.757-10.492c4.761-1.035,9.461,1.983,10.502,6.742c1.076,5.081,2.484,10.086,4.216,14.983
			c0.969,2.705,0.562,5.712-1.091,8.062C235.057,300.684,232.365,302.084,229.492,302.086L229.492,302.086z"/>
	</g>
	<g>
		<path style="fill:#394F63;" d="M194.207,79.449h-44.138c-4.875,0-8.828-3.952-8.828-8.828s3.952-8.828,8.828-8.828h44.138
			c4.875,0,8.828,3.952,8.828,8.828S199.082,79.449,194.207,79.449z"/>
		<path style="fill:#394F63;" d="M361.931,450.207h-44.138c-4.875,0-8.828-3.952-8.828-8.828s3.952-8.828,8.828-8.828h44.138
			c4.875,0,8.828,3.952,8.828,8.828S366.806,450.207,361.931,450.207z"/>
	</g>
</g>
<g>
</g>
<g>
</g>
<g>
</g>
<g>
</g>
<g>
</g>
<g>
</g>
<g>
</g>
<g>
</g>
<g>
</g>
<g>
</g>
<g>
</g>
<g>
</g>
<g>
</g>
<g>
</g>
<g>
</g>
</svg>
