<?xml version="1.0" encoding="iso-8859-1"?>
<!-- Generator: Adobe Illustrator 19.0.0, SVG Export Plug-In . SVG Version: 6.00 Build 0)  -->
<svg version="1.1" id="Capa_1" xmlns="http://www.w3.org/2000/svg" xmlns:xlink="http://www.w3.org/1999/xlink" x="0px" y="0px"
	 viewBox="0 0 512 512" style="enable-background:new 0 0 512 512;" xml:space="preserve">
<g>
	<path style="fill:#5496CE;" d="M97.103,0h317.793c9.751,0,17.655,7.904,17.655,17.655v476.69c0,9.751-7.905,17.655-17.655,17.655
		H97.103c-9.751,0-17.655-7.905-17.655-17.655V17.655C79.448,7.904,87.353,0,97.103,0z"/>
	<path style="fill:#FFFFFF;" d="M123.586,432.552h52.966c4.875,0,8.828,3.952,8.828,8.828v26.483c0,4.875-3.952,8.828-8.828,8.828
		h-52.966c-4.875,0-8.828-3.952-8.828-8.828v-26.483C114.759,436.504,118.711,432.552,123.586,432.552z"/>
	<rect x="79.448" y="44.138" style="fill:#C9CED1;" width="353.103" height="105.931"/>
	<rect x="141.241" y="432.552" style="fill:#3A3E48;" width="17.655" height="44.138"/>
	<g>
		<path style="fill:#CD4F38;" d="M203.034,88.276h-79.448c-4.875,0-8.828-3.952-8.828-8.828c0-4.875,3.952-8.828,8.828-8.828h79.448
			c4.875,0,8.828,3.952,8.828,8.828C211.862,84.324,207.91,88.276,203.034,88.276z"/>
		<path style="fill:#CD4F38;" d="M256,88.276h-17.655c-4.875,0-8.828-3.952-8.828-8.828c0-4.875,3.952-8.828,8.828-8.828H256
			c4.875,0,8.828,3.952,8.828,8.828C264.828,84.324,260.875,88.276,256,88.276z"/>
		<path style="fill:#CD4F38;" d="M388.414,88.276H291.31c-4.875,0-8.828-3.952-8.828-8.828c0-4.875,3.952-8.828,8.828-8.828h97.103
			c4.875,0,8.828,3.952,8.828,8.828C397.241,84.324,393.289,88.276,388.414,88.276z"/>
		<path style="fill:#CD4F38;" d="M273.655,123.586h-97.103c-4.875,0-8.828-3.952-8.828-8.828s3.952-8.828,8.828-8.828h97.103
			c4.875,0,8.828,3.952,8.828,8.828S278.531,123.586,273.655,123.586z"/>
		<path style="fill:#CD4F38;" d="M388.414,123.586h-79.448c-4.875,0-8.828-3.952-8.828-8.828s3.952-8.828,8.828-8.828h79.448
			c4.875,0,8.828,3.952,8.828,8.828S393.289,123.586,388.414,123.586z"/>
		<path style="fill:#CD4F38;" d="M141.241,123.586h-17.655c-4.875,0-8.828-3.952-8.828-8.828s3.952-8.828,8.828-8.828h17.655
			c4.875,0,8.828,3.952,8.828,8.828S146.117,123.586,141.241,123.586z"/>
	</g>
	<path style="fill:#FFFFFF;" d="M353.103,282.483v26.483c0,53.629-43.475,97.103-97.103,97.103s-97.103-43.475-97.103-97.103
		v-26.483"/>
	<path style="fill:#F6DB6D;" d="M325.385,251.586c17.126,7.945,27.719,18.891,27.719,30.897c0,24.364-43.432,44.138-97.103,44.138
		s-97.103-19.774-97.103-44.138s43.432-44.138,97.103-44.138c11.326-0.024,22.635,0.891,33.81,2.737"/>
	<path style="fill:#A5B4B4;" d="M343.633,185.379h-0.112c-5.11,0-9.95,2.294-13.186,6.249L256,282.483h44.138l56.682-69.278
		c4.169-5.095,5.029-12.136,2.21-18.085C356.211,189.172,350.217,185.379,343.633,185.379L343.633,185.379z"/>
</g>
<g>
</g>
<g>
</g>
<g>
</g>
<g>
</g>
<g>
</g>
<g>
</g>
<g>
</g>
<g>
</g>
<g>
</g>
<g>
</g>
<g>
</g>
<g>
</g>
<g>
</g>
<g>
</g>
<g>
</g>
</svg>
