<?xml version="1.0" encoding="iso-8859-1"?>
<!-- Generator: Adobe Illustrator 19.0.0, SVG Export Plug-In . SVG Version: 6.00 Build 0)  -->
<svg version="1.1" id="Capa_1" xmlns="http://www.w3.org/2000/svg" xmlns:xlink="http://www.w3.org/1999/xlink" x="0px" y="0px"
	 viewBox="0 0 512.136 512.136" style="enable-background:new 0 0 512.136 512.136;" xml:space="preserve">
<g transform="translate(0 -1)">
	<path style="fill:#ED634C;" d="M447.243,45.395l-12.965-11.099L395.383,1l-14.818,59.431
		c-5.177,20.875-19.906,38.081-39.733,46.415l-24.965,10.53c-19.827,8.334-34.556,25.539-39.733,46.415l-6.555,26.29
		c-5.177,20.875-19.906,38.081-39.733,46.415l-24.965,10.53c-19.827,8.334-34.556,25.539-39.733,46.415l-6.555,26.29
		c-5.177,20.875-19.906,38.081-39.733,46.415l-56.437,23.804l38.895,33.296l38.895,33.296l38.895,33.296l56.436-23.804
		c19.827-8.334,34.556-25.539,39.733-46.415l6.555-26.29c5.177-20.875,19.906-38.081,39.733-46.415l24.965-10.53
		c19.827-8.334,34.556-25.539,39.733-46.415l6.555-26.29c5.177-20.875,19.906-38.081,39.733-46.415l24.965-10.53
		c19.827-8.334,34.556-25.539,39.733-46.415l14.819-59.43"/>
	<path style="fill:#FE9189;" d="M321.54,346.938c-19.812,8.348-34.533,25.543-39.726,46.406l-6.542,26.239
		c-5.113,20.904-19.86,38.131-39.726,46.406l-56.438,23.848l-38.895-33.296l56.438-23.848c19.866-8.275,34.613-25.502,39.726-46.406
		l6.542-26.239c5.193-20.863,19.913-38.058,39.726-46.406l24.974-10.577c19.865-8.274,34.613-25.502,39.725-46.405l6.6-26.306
		c5.193-20.863,19.913-38.058,39.726-46.406l24.917-10.51c19.866-8.275,34.613-25.502,39.726-46.406l14.861-59.44l38.895,33.296
		l-14.861,59.44c-5.113,20.904-19.86,38.131-39.726,46.406l-24.917,10.51c-19.812,8.348-34.533,25.543-39.726,46.406l-6.6,26.306
		c-5.112,20.904-19.86,38.131-39.725,46.405L321.54,346.938z"/>
	<path style="fill:#FF6C77;" d="M282.645,313.642c-19.812,8.348-34.533,25.543-39.726,46.406l-6.542,26.239
		c-5.113,20.904-19.86,38.131-39.726,46.406l-56.438,23.848l-38.895-33.296l56.438-23.848c19.812-8.348,34.532-25.544,39.726-46.406
		l6.542-26.239c5.193-20.863,19.913-38.058,39.726-46.406l24.974-10.577c19.812-8.348,34.532-25.543,39.725-46.405l6.6-26.306
		c5.193-20.863,19.913-38.058,39.726-46.406l24.917-10.51c19.812-8.348,34.532-25.544,39.726-46.406l14.861-59.44l38.895,33.296
		l-14.861,59.44c-5.113,20.904-19.86,38.131-39.726,46.406l-24.917,10.51c-19.812,8.348-34.533,25.543-39.726,46.406l-6.6,26.306
		c-5.112,20.904-19.86,38.131-39.725,46.405L282.645,313.642z"/>
	<path style="fill:#CD4F38;" d="M68.335,1.136H0.068L27.46,55.92c9.643,19.225,9.643,41.874,0,61.099l-12.117,24.235
		c-9.643,19.225-9.643,41.874,0,61.099l12.117,24.235c9.643,19.225,9.643,41.874,0,61.099L15.343,311.92
		c-9.643,19.225-9.643,41.874,0,61.099l12.117,24.235c9.643,19.225,9.643,41.874,0,61.099L0.068,513.136h153.6l27.392-54.784
		c9.643-19.225,9.643-41.874,0-61.099l-12.117-24.235c-9.643-19.225-9.643-41.874,0-61.099l12.117-24.235
		c9.643-19.225,9.643-41.874,0-61.099l-12.117-24.235c-9.643-19.225-9.643-41.874,0-61.099l12.117-24.235
		c9.643-19.225,9.643-41.874,0-61.099L153.668,1.136"/>
	<path style="fill:#944143;" d="M168.94,311.956c-9.622,19.226-9.622,41.861,0,61.087l12.094,24.188
		c9.71,19.205,9.71,41.882,0,61.087l-27.366,54.819h-51.2l27.366-54.819c9.71-19.205,9.71-41.882,0-61.087l-12.094-24.188
		c-9.622-19.226-9.622-41.861,0-61.087l12.094-24.276c9.71-19.204,9.71-41.882,0-61.086l-12.094-24.276
		c-9.622-19.226-9.622-41.861,0-61.087l12.094-24.188c9.71-19.205,9.71-41.882,0-61.087l-27.366-54.82h51.2l27.366,54.819
		c9.71,19.205,9.71,41.882,0,61.087L168.94,141.23c-9.622,19.226-9.622,41.861,0,61.087l12.094,24.276
		c9.71,19.204,9.71,41.882,0,61.086L168.94,311.956z"/>
	<path style="fill:#FF6C77;" d="M117.74,311.956c-9.622,19.226-9.622,41.861,0,61.087l12.094,24.188
		c9.71,19.205,9.71,41.882,0,61.087l-27.366,54.819h-51.2l27.366-54.819c9.622-19.226,9.622-41.861,0-61.087L66.54,373.043
		c-9.622-19.226-9.622-41.861,0-61.087l12.094-24.276c9.622-19.226,9.622-41.861,0-61.087L66.54,202.317
		c-9.622-19.226-9.622-41.861,0-61.087l12.094-24.188c9.622-19.226,9.622-41.861,0-61.087L51.268,1.136h51.2l27.366,54.819
		c9.71,19.205,9.71,41.882,0,61.087L117.74,141.23c-9.622,19.226-9.622,41.861,0,61.087l12.094,24.276
		c9.71,19.204,9.71,41.882,0,61.086L117.74,311.956z"/>
</g>
<g>
</g>
<g>
</g>
<g>
</g>
<g>
</g>
<g>
</g>
<g>
</g>
<g>
</g>
<g>
</g>
<g>
</g>
<g>
</g>
<g>
</g>
<g>
</g>
<g>
</g>
<g>
</g>
<g>
</g>
</svg>
