<?xml version="1.0" encoding="iso-8859-1"?>
<!-- Generator: Adobe Illustrator 19.0.0, SVG Export Plug-In . SVG Version: 6.00 Build 0)  -->
<svg version="1.1" id="Capa_1" xmlns="http://www.w3.org/2000/svg" xmlns:xlink="http://www.w3.org/1999/xlink" x="0px" y="0px"
	 viewBox="0 0 512.061 512.061" style="enable-background:new 0 0 512.061 512.061;" xml:space="preserve">
<g transform="translate(-1)">
	<path style="fill:#FEDEBB;" d="M39.804,441.94C9.371,398.975-3.892,346.181,2.62,293.934
		c7.351-61.066,27.827-140.428,81.813-181.033C171.408,47.486,306.51-13.532,416.678,60.129s107.269,160.517,81.757,207.792
		c-25.512,47.275-92.634,76.385-146.558,76.385c-104.296,0-122.484,14.867-144.518,89.629S85.593,486.158,60.08,465.269
		C52.384,458.36,45.573,450.524,39.804,441.94z"/>
	<g>
		<path style="fill:#CD4F38;" d="M165.051,296.879c21.519,30.585,27.19,69.589,15.271,105.036
			c-2.284,6.862-4.528,14.199-6.838,22.038c-2.121,7.19-7.742,26.284-42.828,26.284c-16.87,0.187-33.494-4.052-48.215-12.293
			c-5.28-4.921-9.943-10.464-13.888-16.509c-25.32-35.8-36.332-79.777-30.871-123.284c2.75-27.042,8.026-53.768,15.758-79.827
			c2.203-6.683,7.456-11.918,14.146-14.098c6.69-2.18,14.019-1.045,19.736,3.057c21.395,16.007,39.976,35.465,54.981,57.575
			C150.859,276.837,158.442,287.511,165.051,296.879z"/>
		<path style="fill:#CD4F38;" d="M315.098,281.162c34.282,22.322,78.01,24.168,114.052,4.814
			c15.664-7.926,28.875-19.968,38.214-34.834c7.586-14.069,39.888-87.983-70.302-161.664
			c-27.495-18.365-59.894-28.004-92.956-27.655c-64.833,0-134.525,25.688-170.629,61.793c-13.784,13.784-32.948,43.709,9.718,89.776
			c23.943,25.163,56.329,40.605,90.953,43.368C262.621,258.707,290.291,267.048,315.098,281.162L315.098,281.162z"/>
	</g>
	<circle style="fill:#C9CED1;" cx="389.476" cy="211.889" r="35.31"/>
</g>
<g>
</g>
<g>
</g>
<g>
</g>
<g>
</g>
<g>
</g>
<g>
</g>
<g>
</g>
<g>
</g>
<g>
</g>
<g>
</g>
<g>
</g>
<g>
</g>
<g>
</g>
<g>
</g>
<g>
</g>
</svg>
