<?xml version="1.0" encoding="iso-8859-1"?>
<!-- Generator: Adobe Illustrator 19.0.0, SVG Export Plug-In . SVG Version: 6.00 Build 0)  -->
<svg version="1.1" id="Capa_1" xmlns="http://www.w3.org/2000/svg" xmlns:xlink="http://www.w3.org/1999/xlink" x="0px" y="0px"
	 viewBox="0 0 512 512" style="enable-background:new 0 0 512 512;" xml:space="preserve">
<path style="fill:#C9AD80;" d="M33.898,433.975c-3.762-5.813-5.2-12.399-4.595-18.724c0.86-8.978-4.127-17.649-12.32-21.421
	c-5.77-2.656-10.74-7.211-13.873-13.387c-6.701-13.206-2.24-29.749,10.194-37.793c14.206-9.192,33.023-4.512,41.351,9.968
	c1.263,2.196,2.175,4.494,2.82,6.828l64.326-36.997l21.911,38.096l-64.326,36.997c1.694,1.732,3.22,3.674,4.484,5.871
	c8.328,14.479,2.91,33.099-12.179,40.755C58.485,450.87,41.942,446.408,33.898,433.975z"/>
<path style="fill:#E6D8B3;" d="M121.8,322.451l-64.326,36.997c-0.645-2.334-1.556-4.632-2.82-6.828
	c-8.328-14.479-27.145-19.16-41.351-9.968c0,0,15.667,58.538,67.559,28.693c12.973-7.462,51.892-29.845,51.892-29.845L121.8,322.451
	z"/>
<path style="fill:#AD712C;" d="M149.102,340.56c-2.762-0.745-4.963-2.543-6.288-4.847c-4.979,2.863-21.745-2.502-21.745-2.502
	s-7.569,19.362-14.126,23.134c6.611,11.493,17.595,20.47,31.377,24.188c11.037,2.977,22.399-3.557,25.376-14.595
	S160.139,343.537,149.102,340.56z"/>
<path style="fill:#C98A2E;" d="M141.785,327.841c2.977-11.037-3.557-22.399-14.595-25.376c-11.037-2.977-22.399,3.557-25.376,14.595
	c-3.717,13.782-1.481,27.791,5.128,39.285c11.342-6.523,24.072-13.845,35.871-20.63
	C141.489,333.411,141.041,330.603,141.785,327.841z"/>
<path style="fill:#AD712C;" d="M260.872,123.64c32.372-46.278,91.373-69.678,149.049-54.123
	c73.462,19.813,117.118,95.718,97.303,169.179c-15.558,57.675-65.454,96.906-121.733,101.616l-241.779,20.234l0,0
	c-16.57-4.47-26.38-21.526-21.911-38.096l0,0L260.872,123.64z"/>
<path style="fill:#C98A2E;" d="M260.872,123.64l-72.709,103.941c-22.345,31.943,2.683,75.458,41.53,72.206l112.086-9.38
	c56.281-4.71,106.177-43.941,121.733-101.617c4.964-18.405,5.944-36.964,3.469-54.755c-4.282-30.778-26.611-56.192-56.585-64.389
	c-0.158-0.043-0.315-0.086-0.473-0.129C352.246,53.962,293.246,77.361,260.872,123.64z"/>
<path style="opacity:0.3;fill:#F6D445;enable-background:new    ;" d="M387.918,152.904c14.462-53.185-44.643-95.516-90.509-64.953
	c-14.15,9.429-26.599,21.48-36.537,35.689l-26.323,37.63c-17.136,24.496-4.62,58.537,24.283,66.167
	c0.436,0.115,0.874,0.228,1.311,0.338c54.979,13.781,111.57-18.764,127.309-73.214C387.613,154.009,387.769,153.457,387.918,152.904
	z"/>
<g>
</g>
<g>
</g>
<g>
</g>
<g>
</g>
<g>
</g>
<g>
</g>
<g>
</g>
<g>
</g>
<g>
</g>
<g>
</g>
<g>
</g>
<g>
</g>
<g>
</g>
<g>
</g>
<g>
</g>
</svg>
