<?xml version="1.0" encoding="iso-8859-1"?>
<!-- Generator: Adobe Illustrator 19.0.0, SVG Export Plug-In . SVG Version: 6.00 Build 0)  -->
<svg version="1.1" id="Capa_1" xmlns="http://www.w3.org/2000/svg" xmlns:xlink="http://www.w3.org/1999/xlink" x="0px" y="0px"
	 viewBox="0 0 505.471 505.471" style="enable-background:new 0 0 505.471 505.471;" xml:space="preserve">
<g transform="translate(-1)">
	<path style="fill:#D75E72;" d="M211.479,371.483h-0.087l-45.039,57.535c-11.347,14.454-10.592,34.991,1.786,48.572
		c12.378,13.582,32.757,16.234,48.199,6.272c0.868-0.607,1.736-1.215,2.517-1.822h69.771c0.781,0.607,1.649,1.215,2.517,1.822
		c15.442,9.961,35.82,7.309,48.199-6.272c12.378-13.582,13.133-34.118,1.786-48.572l-45.039-57.535h-0.087l-18.401-7.74
		l-50.693-0.938L211.479,371.483z"/>
	<path style="fill:#F09372;" d="M290.083,480.453c-5.751,15.065-20.204,25.018-36.329,25.018c-16.126,0-30.578-9.953-36.329-25.018
		c-3.626-8.256-4.918-17.348-3.735-26.287l11.114-86.747l-0.56-2.175v-0.091c19.431-4.082,39.526-3.803,58.837,0.816l-0.374,1.45
		l11.114,86.747C295.001,463.104,293.709,472.197,290.083,480.453z"/>
	<g>
		<path style="fill:#D75E72;" d="M383.923,42.067v88.081c0,8.765-7.376,14.839-14.145,11.542c-1.041-0.521-2.169-1.041-3.211-1.475
			v74.891c0,7.463-6.422,12.496-12.236,9.719c-1.736-0.868-3.558-1.649-5.294-2.43c0.144,0.596,0.202,1.21,0.174,1.822v69.684
			c0,6.942-5.38,11.715-10.327,9.112c-4.599-2.343-9.199-4.599-13.885-6.508l-0.174,0.521l-15.534,62.134
			c-1.433,6.084-6.942,10.325-13.19,10.153h-0.087c-1.297-0.07-2.58-0.303-3.818-0.694c-2.517-0.868-5.033-1.562-7.55-2.256h-0.087
			c-7.307-1.895-14.772-3.115-22.302-3.645c-5.661-0.434-11.348-0.434-17.009,0c-6.612,0.453-13.173,1.469-19.612,3.037
			c-0.955,0.174-1.822,0.347-2.777,0.607c-2.517,0.694-5.033,1.388-7.55,2.256c-1.245,0.366-2.525,0.598-3.818,0.694h-0.347
			c-6.145,0.028-11.5-4.177-12.93-10.153l-15.534-62.134l-0.174-0.521c-4.686,1.909-9.285,4.079-13.885,6.508
			c-0.848,0.473-1.806,0.712-2.777,0.694c-4.754-0.69-8.098-5.034-7.55-9.806v-69.684c-0.029-0.613,0.03-1.226,0.174-1.822
			c-1.736,0.781-3.558,1.562-5.294,2.43c-1.03,0.495-2.155,0.761-3.297,0.781c-5.353-0.461-9.338-5.143-8.939-10.5v-74.891
			c-1.041,0.434-2.169,0.955-3.211,1.475c-1.194,0.566-2.497,0.862-3.818,0.868c-6.254-0.622-10.851-6.147-10.327-12.409V42.067
			c-0.154-4.76,2.355-9.211,6.508-11.542l7.637-3.645c73.198-35.84,158.851-35.84,232.049,0l7.637,3.645
			C381.568,32.857,384.078,37.307,383.923,42.067z"/>
		<path style="fill:#D75E72;" d="M383.923,42.067v88.081c0,8.765-7.376,14.839-14.145,11.542c-1.041-0.521-2.169-1.041-3.211-1.475
			v-0.087c-71.421-33.757-154.206-33.757-225.627,0v0.087c-1.041,0.434-2.169,0.955-3.211,1.475
			c-1.194,0.566-2.497,0.862-3.818,0.868c-6.254-0.622-10.851-6.147-10.327-12.409V42.067c-0.154-4.76,2.355-9.211,6.508-11.542
			l7.637-3.645c73.198-35.84,158.851-35.84,232.049,0l7.637,3.645C381.568,32.857,384.078,37.307,383.923,42.067z"/>
	</g>
	<path style="fill:#FB7B76;" d="M366.567,140.129v74.978c0,7.463-6.422,12.496-12.236,9.719c-1.736-0.868-3.558-1.649-5.294-2.43
		l-1.822-0.781c-59.607-25.947-127.317-25.947-186.923,0l-1.822,0.781c-1.736,0.781-3.558,1.562-5.294,2.43
		c-1.03,0.495-2.155,0.761-3.297,0.781c-5.353-0.461-9.338-5.143-8.939-10.5v-74.978
		C212.361,106.372,295.146,106.372,366.567,140.129z"/>
	<path style="fill:#D75E72;" d="M349.212,224.218v69.684c0,6.942-5.38,11.715-10.327,9.112c-4.599-2.343-9.199-4.599-13.885-6.508
		c-45.455-19.699-97.037-19.699-142.492,0c-4.686,1.909-9.285,4.079-13.885,6.508c-0.848,0.473-1.806,0.712-2.777,0.694
		c-4.754-0.69-8.098-5.034-7.55-9.806v-69.684c-0.029-0.613,0.03-1.226,0.174-1.822l1.822-0.781
		c59.607-25.947,127.317-25.947,186.923,0l1.822,0.781C349.182,222.992,349.24,223.605,349.212,224.218z"/>
	<path style="fill:#FB7B76;" d="M325,296.505l-0.174,0.521l-15.534,62.134c-1.433,6.084-6.942,10.325-13.19,10.153h-0.087
		c-1.297-0.07-2.58-0.303-3.818-0.694c-2.517-0.868-5.033-1.562-7.55-2.256h-0.087c-7.307-1.895-14.772-3.115-22.302-3.645
		c-5.661-0.434-11.348-0.434-17.009,0c-6.612,0.453-13.173,1.469-19.612,3.037c-0.955,0.174-1.822,0.347-2.777,0.607
		c-2.517,0.694-5.033,1.388-7.55,2.256c-1.245,0.366-2.525,0.598-3.818,0.694h-0.347c-6.145,0.028-11.5-4.177-12.93-10.153
		l-15.534-62.134l-0.174-0.521C227.963,276.806,279.545,276.806,325,296.505z"/>
	<path style="fill:#FDD7AD;" d="M226.712,340.912c-3.98-0.004-7.447-2.715-8.411-6.576l-2.237-8.958
		c-1.131-4.638,1.697-9.319,6.329-10.476c4.632-1.156,9.328,1.646,10.51,6.272l2.237,8.958c0.641,2.593,0.055,5.337-1.59,7.441
		C231.904,339.677,229.383,340.908,226.712,340.912L226.712,340.912z"/>
	<path style="fill:#FB7B76;" d="M158.296,106.284c-2.302,0.001-4.509-0.913-6.137-2.541c-1.628-1.628-2.542-3.835-2.541-6.137
		V71.573c0-4.793,3.885-8.678,8.678-8.678s8.678,3.885,8.678,8.678v26.034c0.001,2.302-0.913,4.509-2.541,6.137
		C162.806,105.371,160.598,106.285,158.296,106.284z"/>
	<path style="fill:#FDD7AD;" d="M175.652,193.064c-2.302,0.001-4.509-0.913-6.137-2.541c-1.628-1.628-2.542-3.835-2.541-6.137
		V167.03c0-4.793,3.885-8.678,8.678-8.678s8.678,3.885,8.678,8.678v17.356c0.001,2.302-0.913,4.509-2.541,6.137
		C180.162,192.151,177.954,193.065,175.652,193.064L175.652,193.064z"/>
	<path style="fill:#FB7B76;" d="M193.008,271.166c-2.302,0.001-4.509-0.913-6.137-2.541s-2.542-3.835-2.541-6.137v-17.356
		c0-4.793,3.885-8.678,8.678-8.678s8.678,3.885,8.678,8.678v17.356c0.001,2.302-0.913,4.509-2.541,6.137
		S195.31,271.166,193.008,271.166z"/>
	<path style="fill:#FDD7AD;" d="M262.432,366.623v26.034c0,4.793-3.885,8.678-8.678,8.678s-8.678-3.885-8.678-8.678v-26.034
		c0.01-0.582,0.068-1.163,0.174-1.736c5.661-0.434,11.348-0.434,17.009,0C262.363,365.461,262.421,366.041,262.432,366.623
		L262.432,366.623z"/>
</g>
<g>
</g>
<g>
</g>
<g>
</g>
<g>
</g>
<g>
</g>
<g>
</g>
<g>
</g>
<g>
</g>
<g>
</g>
<g>
</g>
<g>
</g>
<g>
</g>
<g>
</g>
<g>
</g>
<g>
</g>
</svg>
