<?xml version="1.0" encoding="iso-8859-1"?>
<!-- Generator: Adobe Illustrator 19.0.0, SVG Export Plug-In . SVG Version: 6.00 Build 0)  -->
<svg version="1.1" id="Capa_1" xmlns="http://www.w3.org/2000/svg" xmlns:xlink="http://www.w3.org/1999/xlink" x="0px" y="0px"
	 viewBox="0 0 512 512" style="enable-background:new 0 0 512 512;" xml:space="preserve">
<path style="fill:#F9EAB0;" d="M124.894,4.242c-18.133,34.023-27.673,71.963-27.79,110.516L98.194,128l69.775-1.939l-0.245-11.303
	c-0.117-38.553-9.658-76.493-27.79-110.516C138.343,1.609,135.49,0,132.414,0S126.485,1.609,124.894,4.242z"/>
<path style="fill:#CC4B4C;" d="M399.064,3.506c-7.846,10.554-19.478,37.967-19.478,84.77l-0.013,17.655h52.966l0.013-17.655
	c0-46.803-11.632-74.216-19.478-84.77C411.421,1.299,408.826,0,406.069,0S400.717,1.299,399.064,3.506z"/>
<path style="fill:#802F34;" d="M358.647,88.276h94.845c7.937,0,14.371,6.434,14.371,14.371v65.078H344.276v-65.078
	C344.276,94.71,350.71,88.276,358.647,88.276z"/>
<path style="fill:#F3D55B;" d="M194.207,150.069c0,0-45.727-17.655-61.793-17.655s-61.793,17.655-61.793,17.655
	s-52.966,52.966-52.966,185.379c0,0,0,176.552,52.966,176.552h123.586c52.966,0,52.966-176.552,52.966-176.552
	C247.172,203.035,194.207,150.069,194.207,150.069z"/>
<rect x="61.78" y="256" style="fill:#F9EAB0;" width="141.24" height="105.93"/>
<path style="fill:#B19046;" d="M61.78,114.759h141.241c4.875,0,8.828,3.952,8.828,8.828v17.655c0,4.875-3.952,8.828-8.828,8.828
	H61.78c-4.875,0-8.828-3.952-8.828-8.828v-17.655C52.952,118.711,56.904,114.759,61.78,114.759z"/>
<g>
	<path style="fill:#FAC176;" d="M167.728,335.448h-70.62c-4.875,0-8.828-3.952-8.828-8.828s3.952-8.828,8.828-8.828h70.621
		c4.875,0,8.828,3.952,8.828,8.828S172.604,335.448,167.728,335.448z"/>
	<path style="fill:#FAC176;" d="M150.073,300.138h-35.31c-4.875,0-8.828-3.952-8.828-8.828s3.952-8.828,8.828-8.828h35.31
		c4.875,0,8.828,3.952,8.828,8.828S154.949,300.138,150.073,300.138z"/>
</g>
<path style="fill:#CC4B4C;" d="M332.164,123.586h147.81c7.937,0,14.371,6.434,14.371,14.371v356.388
	c0,9.751-7.904,17.655-17.655,17.655H335.448c-9.751,0-17.655-7.904-17.655-17.655V137.957
	C317.793,130.02,324.227,123.586,332.164,123.586z"/>
<rect x="317.78" y="256" style="fill:#F3D55B;" width="176.55" height="123.59"/>
<path style="fill:#F5EFCA;" d="M385.832,311.555l14.001-14.001c3.447-3.447,9.037-3.447,12.484,0l14.001,14.001
	c3.447,3.447,3.447,9.037,0,12.484l-14.001,14.001c-3.447,3.447-9.037,3.447-12.484,0l-14.001-14.001
	C382.385,320.591,382.385,315.002,385.832,311.555z"/>
<g>
	<path style="fill:#FB7B76;" d="M388.418,485.517h-26.483c-9.745-0.013-17.642-7.91-17.655-17.655v-26.483
		c0-4.875,3.952-8.828,8.828-8.828s8.828,3.952,8.828,8.828v26.483h26.483c4.875,0,8.828,3.952,8.828,8.828
		C397.246,481.565,393.293,485.517,388.418,485.517L388.418,485.517z"/>
	<path style="fill:#FB7B76;" d="M459.039,203.035c-2.342,0.001-4.588-0.928-6.244-2.584s-2.585-3.902-2.584-6.244v-26.483h-26.483
		c-4.875,0-8.828-3.952-8.828-8.828s3.952-8.828,8.828-8.828h26.483c9.745,0.013,17.642,7.91,17.655,17.655v26.483
		c0.001,2.342-0.928,4.588-2.584,6.244S461.38,203.036,459.039,203.035z"/>
</g>
<path style="fill:#B19046;" d="M235.629,450.207H29.198C36.834,483.939,49.513,512,70.621,512h123.586
	C215.315,512,227.994,483.939,235.629,450.207z"/>
<g>
</g>
<g>
</g>
<g>
</g>
<g>
</g>
<g>
</g>
<g>
</g>
<g>
</g>
<g>
</g>
<g>
</g>
<g>
</g>
<g>
</g>
<g>
</g>
<g>
</g>
<g>
</g>
<g>
</g>
</svg>
