<?xml version="1.0" encoding="iso-8859-1"?>
<!-- Generator: Adobe Illustrator 19.0.0, SVG Export Plug-In . SVG Version: 6.00 Build 0)  -->
<svg version="1.1" id="Capa_1" xmlns="http://www.w3.org/2000/svg" xmlns:xlink="http://www.w3.org/1999/xlink" x="0px" y="0px"
	 viewBox="0 0 512 512" style="enable-background:new 0 0 512 512;" xml:space="preserve">
<g>
	<path style="fill:#F4CD1E;" d="M361.931,176.552v256l-22.863,6.268c-54.337,15.184-111.797,15.184-166.135,0l-22.864-6.268v-256
		c0-3.001,0.088-5.914,0.265-8.739l22.599,6.179c54.337,15.184,111.797,15.184,166.135,0l22.599-6.179
		C361.843,170.637,361.931,173.55,361.931,176.552z"/>
	<g>
		<path style="fill:#ED634C;" d="M361.931,432.552v26.483c-0.023,29.242-23.723,52.942-52.966,52.966H203.034
			c-29.242-0.023-52.942-23.723-52.966-52.966v-26.483l22.863,6.268c54.337,15.184,111.797,15.184,166.135,0L361.931,432.552z"/>
		<path style="fill:#ED634C;" d="M172.932,173.992l-22.599-6.179c1.677-30.014,12.712-53.054,43.873-53.054
			c9.721-0.07,17.585-7.934,17.655-17.655V35.31h88.276v61.793c0.029,9.739,7.916,17.627,17.655,17.655
			c14.103-1.012,27.579,5.982,34.869,18.097c5.808,10.744,8.899,22.745,9.004,34.957l-22.599,6.179
			C284.73,189.176,227.27,189.176,172.932,173.992L172.932,173.992z"/>
	</g>
	<path style="fill:#CD4F38;" d="M308.966,17.655V35.31c0,4.875-3.952,8.828-8.828,8.828h-88.276c-4.875,0-8.828-3.952-8.828-8.828
		V17.655C203.034,7.904,210.939,0,220.69,0h70.621C301.061,0,308.966,7.904,308.966,17.655z"/>
	<path style="fill:#DC6C33;" d="M326.646,344.276c0,43.878-35.948,70.621-79.448,70.621s-67.729-36.167-60.577-79.448
		c8.752-52.966,87.06-114.759,87.06-114.759c2.488,21.457,8.559,42.345,17.959,61.793
		C301.272,301.867,326.646,317.793,326.646,344.276z"/>
	<path style="fill:#F4CD1E;" d="M259.309,379.586c6.506,0.465,12.879-2.004,17.373-6.732c5.45-7.567,7.332-17.134,5.152-26.202
		c-2.286-13.582-14.966-30.958-29.246-46.515c-1.373,3.174-2.872,6.377-4.496,9.609c-4.542,8.287-10.063,15.999-16.445,22.969
		c-5.137,6.021-10.961,12.857-10.961,16.57C220.686,371.649,241.491,379.586,259.309,379.586z"/>
	<path style="fill:#CD4F38;" d="M256,141.241c-9.818,0.091-19.598-1.224-29.043-3.905c-4.648-1.419-7.276-6.329-5.878-10.984
		c1.397-4.655,6.294-7.305,10.956-5.93c15.708,4.089,32.2,4.092,47.91,0.009c4.662-1.375,9.558,1.275,10.956,5.93
		c1.397,4.655-1.23,9.564-5.878,10.984C275.584,140.024,265.811,141.337,256,141.241L256,141.241z"/>
</g>
<g>
</g>
<g>
</g>
<g>
</g>
<g>
</g>
<g>
</g>
<g>
</g>
<g>
</g>
<g>
</g>
<g>
</g>
<g>
</g>
<g>
</g>
<g>
</g>
<g>
</g>
<g>
</g>
<g>
</g>
</svg>
