<?xml version="1.0" encoding="iso-8859-1"?>
<!-- Generator: Adobe Illustrator 19.0.0, SVG Export Plug-In . SVG Version: 6.00 Build 0)  -->
<svg version="1.1" id="Capa_1" xmlns="http://www.w3.org/2000/svg" xmlns:xlink="http://www.w3.org/1999/xlink" x="0px" y="0px"
	 viewBox="0 0 512 512" style="enable-background:new 0 0 512 512;" xml:space="preserve">
<g>
	<path style="fill:#928170;" d="M167.352,496.511l-11.829-11.917c-10.261-10.278-15.854-24.318-15.47-38.836
		c0.384-14.518,6.711-28.243,17.501-37.964l73.886-66.383c-60.469-73.534-38.312-122.439-38.312-122.439
		c6.626-10.101,14.257-19.506,22.775-28.072c61.692-61.611,159.528-67.861,228.559-14.601s87.806,149.481,43.862,224.785
		c-13.799,23.213-32.696,42.985-55.261,57.821c0,0-48.905,22.157-122.44-38.312l-45.108,50.141l-21.274,23.746
		c-9.739,10.792-23.478,17.118-38.009,17.501C191.7,512.365,177.647,506.773,167.352,496.511z"/>
	<path style="fill:#936642;" d="M404.902,462.789c-5.971-0.238-11.909-1.006-17.743-2.295c-7.646-1.541-15.125-3.818-22.333-6.797
		c-5.585-2.181-11.038-4.687-16.332-7.503c-13.452-7.239-26.139-15.816-37.87-25.6l0.441-0.53l0.088-0.088l19.862-22.069
		c6.465-7.417,15.018-12.709,24.541-15.183c3.544-0.823,7.143-1.384,10.77-1.677c6.009-0.28,12.029,0.194,17.92,1.412
		c7.771,1.701,15.142,4.878,21.716,9.357c3.491,2.322,6.743,4.984,9.711,7.945c1.759,1.726,3.382,3.585,4.855,5.561
		c11.991,15.083,16.591,34.746,12.535,53.583C424.058,462.185,414.458,463.509,404.902,462.789z"/>
	<path style="fill:#668892;" d="M191.187,263.374c-1.187-5.843-1.838-11.782-1.943-17.743l55.968-15.272
		c2.515,1.804,4.876,3.812,7.062,6.003c2.618,2.594,4.982,5.432,7.061,8.474L191.187,263.374z"/>
	<g>
		<path style="fill:#6D5A61;" d="M404.902,462.789c-5.971-0.238-11.909-1.006-17.743-2.295l18.803-68.679
			c3.491,2.322,6.743,4.984,9.711,7.945c1.759,1.726,3.382,3.585,4.855,5.561L404.902,462.789z"/>
		<path style="fill:#6D5A61;" d="M364.826,453.697c-5.585-2.181-11.038-4.687-16.332-7.503l17.832-65.148
			c6.009-0.28,12.029,0.194,17.92,1.412L364.826,453.697z"/>
	</g>
	<path style="fill:#A5B4B4;" d="M356.36,344.629l-11.917,11.829c-10.278,10.261-24.318,15.854-38.836,15.47
		c-14.518-0.384-28.243-6.711-37.964-17.501l-66.383-73.886c-73.534,60.469-122.439,38.312-122.439,38.312
		c-10.101-6.626-19.506-14.257-28.072-22.775c-61.61-61.692-67.86-159.528-14.6-228.558s149.48-87.805,224.784-43.862
		c23.213,13.799,42.985,32.696,57.821,55.261c0,0,22.157,48.905-38.312,122.44l50.141,45.108l23.746,21.274
		c10.792,9.739,17.118,23.478,17.501,38.009S366.623,334.334,356.36,344.629z"/>
	<g>
		<path style="fill:#919D9E;" d="M201.26,280.541c-11.657,9.748-24.288,18.267-37.694,25.422
			c-5.223,2.861-10.618,5.397-16.154,7.593c-7.818,3.164-15.916,5.587-24.188,7.238c-5.843,1.187-11.782,1.838-17.743,1.943
			c-9.059,0.546-18.133-0.776-26.659-3.884c-3.939-18.191,0.216-37.196,11.388-52.083c1.804-2.515,3.812-4.876,6.003-7.062
			c2.594-2.617,5.432-4.982,8.474-7.061c6.982-4.978,14.916-8.464,23.305-10.24c5.876-1.32,11.914-1.766,17.92-1.323
			c3.508,0.263,6.99,0.794,10.417,1.588c9.528,2.454,18.067,7.787,24.452,15.272l19.95,22.069L201.26,280.541z"/>
		<path style="fill:#919D9E;" d="M322.639,107.079c-0.238,5.971-1.006,11.909-2.295,17.743c-1.541,7.646-3.818,15.125-6.797,22.333
			c-2.181,5.585-4.687,11.038-7.503,16.332c-7.239,13.452-15.816,26.139-25.6,37.87l-0.53-0.441l-0.088-0.088l-22.069-19.862
			c-7.417-6.465-12.709-15.018-15.183-24.541c-0.823-3.544-1.384-7.143-1.677-10.77c-0.28-6.009,0.194-12.029,1.412-17.92
			c1.701-7.771,4.878-15.142,9.357-21.716c2.322-3.491,4.984-6.743,7.945-9.711c1.726-1.759,3.585-3.382,5.561-4.855
			c15.083-11.991,34.746-16.591,53.583-12.535C322.035,87.923,323.359,97.523,322.639,107.079z"/>
	</g>
	<g>
		<path style="fill:#668892;" d="M123.224,320.795c-5.843,1.187-11.782,1.838-17.743,1.943L90.209,266.77
			c1.804-2.515,3.812-4.876,6.003-7.062c2.594-2.617,5.432-4.982,8.474-7.061L123.224,320.795z"/>
		<path style="fill:#668892;" d="M163.566,305.963c-5.223,2.861-10.618,5.397-16.154,7.593l-19.421-71.15
			c5.876-1.32,11.914-1.766,17.92-1.323L163.566,305.963z"/>
		<path style="fill:#668892;" d="M322.639,107.079c-0.238,5.971-1.006,11.909-2.295,17.743l-68.679-18.803
			c2.322-3.491,4.984-6.743,7.945-9.711c1.726-1.759,3.585-3.382,5.561-4.855L322.639,107.079z"/>
		<path style="fill:#668892;" d="M313.547,147.155c-2.181,5.585-4.687,11.038-7.503,16.332l-65.148-17.832
			c-0.28-6.009,0.194-12.029,1.412-17.92L313.547,147.155z"/>
	</g>
</g>
<g>
</g>
<g>
</g>
<g>
</g>
<g>
</g>
<g>
</g>
<g>
</g>
<g>
</g>
<g>
</g>
<g>
</g>
<g>
</g>
<g>
</g>
<g>
</g>
<g>
</g>
<g>
</g>
<g>
</g>
</svg>
