<?xml version="1.0" encoding="iso-8859-1"?>
<!-- Generator: Adobe Illustrator 19.0.0, SVG Export Plug-In . SVG Version: 6.00 Build 0)  -->
<svg version="1.1" id="Capa_1" xmlns="http://www.w3.org/2000/svg" xmlns:xlink="http://www.w3.org/1999/xlink" x="0px" y="0px"
	 viewBox="0 0 512 512" style="enable-background:new 0 0 512 512;" xml:space="preserve">
<g>
	<path style="fill:#BFA057;" d="M512,256c0,116.966-154.13,211.862-344.276,211.862C75.123,467.862,0,372.966,0,256
		S75.123,44.138,167.724,44.138C357.87,44.138,512,139.034,512,256z"/>
	<path style="fill:#5DC382;" d="M335.448,256c0,116.789-75.211,211.862-167.724,211.862C75.123,467.862,0,372.966,0,256
		S75.123,44.138,167.724,44.138C260.237,44.138,335.448,139.211,335.448,256z"/>
	<ellipse style="fill:#8ED7AE;" cx="158.897" cy="256" rx="123.586" ry="176.552"/>
	<path style="fill:#5DC382;" d="M205.859,221.837c-4.238-11.965-11.364-22.699-20.745-31.25
		c-19.822-18.884-51.036-18.689-70.621,0.441c-9.891,9.28-17.219,20.956-21.274,33.898c-6.591,20.191-6.591,41.955,0,62.146
		c4.056,12.942,11.384,24.618,21.274,33.898c19.584,19.131,50.799,19.326,70.621,0.441c9.381-8.55,16.507-19.284,20.745-31.249
		C213.863,268.091,213.863,243.909,205.859,221.837L205.859,221.837z"/>
	<path style="fill:#FEDEBB;" d="M150.069,300.138c-4.504-0.236-8.755-2.152-11.914-5.371c-5.313-5.183-9.232-11.623-11.392-18.724
		c-4.221-12.979-4.236-26.96-0.043-39.948c2.167-7.171,6.116-13.675,11.478-18.905c3.153-3.196,7.387-5.097,11.871-5.328
		c4.338,0.187,8.449,1.992,11.522,5.06c5.074,4.723,8.906,10.624,11.155,17.181c5.054,14.1,5.075,29.515,0.06,43.629
		c-2.221,6.549-6.013,12.453-11.043,17.198C158.656,298.072,154.482,299.93,150.069,300.138L150.069,300.138z"/>
	<g>
		<path style="fill:#6D5A61;" d="M150.069,388.414c-2.341,0.001-4.587-0.929-6.243-2.585c-1.656-1.656-2.585-3.901-2.585-6.243
			v-44.138c0-4.875,3.952-8.828,8.828-8.828s8.828,3.952,8.828,8.828v44.138c0.001,2.341-0.929,4.587-2.585,6.243
			C154.656,387.485,152.41,388.414,150.069,388.414L150.069,388.414z"/>
		<path style="fill:#6D5A61;" d="M150.069,185.379c-2.341,0.001-4.587-0.929-6.243-2.585c-1.656-1.656-2.585-3.901-2.585-6.243
			v-44.138c0-4.875,3.952-8.828,8.828-8.828s8.828,3.952,8.828,8.828v44.138c0.001,2.341-0.929,4.587-2.585,6.243
			C154.656,184.45,152.41,185.38,150.069,185.379L150.069,185.379z"/>
		<path style="fill:#6D5A61;" d="M185.108,199.414c-3.109-0.005-5.987-1.644-7.577-4.316c-1.59-2.672-1.657-5.983-0.178-8.718
			l26.746-49.345c1.503-2.773,4.371-4.534,7.525-4.619c3.153-0.085,6.113,1.519,7.763,4.207c1.65,2.688,1.741,6.053,0.238,8.826
			l-26.746,49.345C191.333,197.643,188.35,199.417,185.108,199.414L185.108,199.414z"/>
		<path style="fill:#6D5A61;" d="M97.095,361.931c-3.11,0-5.99-1.637-7.58-4.309c-1.591-2.672-1.657-5.984-0.174-8.717
			l17.392-32.129c1.497-2.78,4.364-4.548,7.52-4.638c3.156-0.09,6.119,1.513,7.771,4.203c1.652,2.69,1.742,6.058,0.235,8.832
			l-17.392,32.129C103.325,360.157,100.34,361.935,97.095,361.931L97.095,361.931z"/>
		<path style="fill:#6D5A61;" d="M114.504,199.853c-3.245,0.004-6.23-1.774-7.772-4.629l-17.392-32.129
			c-1.507-2.774-1.417-6.142,0.235-8.832c1.652-2.69,4.616-4.293,7.771-4.203s6.023,1.858,7.52,4.638l17.392,32.129
			c1.483,2.733,1.416,6.045-0.174,8.717C120.494,198.217,117.614,199.854,114.504,199.853L114.504,199.853z"/>
		<path style="fill:#6D5A61;" d="M211.871,379.586c-3.242,0.003-6.226-1.771-7.772-4.621l-26.746-49.345
			c-2.323-4.287-0.731-9.646,3.556-11.97c4.287-2.323,9.646-0.731,11.97,3.556l26.746,49.345c1.48,2.735,1.412,6.046-0.178,8.718
			S214.98,379.581,211.871,379.586z"/>
		<path style="fill:#6D5A61;" d="M238.336,317.793c-1.551,0.002-3.074-0.409-4.414-1.19l-32.487-18.802
			c-2.729-1.58-4.407-4.496-4.403-7.649c0.004-3.153,1.69-6.065,4.423-7.638c2.733-1.573,6.097-1.569,8.826,0.011l32.487,18.802
			c3.459,2.001,5.142,6.075,4.103,9.933C245.833,315.119,242.332,317.799,238.336,317.793L238.336,317.793z"/>
		<path style="fill:#6D5A61;" d="M93.211,233.759c-1.549,0.002-3.071-0.409-4.409-1.19L66.203,219.5
			c-4.218-2.44-5.66-7.838-3.22-12.056c2.44-4.218,7.838-5.66,12.056-3.22l22.599,13.069c3.46,1.999,5.145,6.073,4.108,9.932
			S97.207,233.764,93.211,233.759L93.211,233.759z"/>
		<path style="fill:#6D5A61;" d="M205.866,230.664c-3.996,0.006-7.497-2.674-8.535-6.532c-1.038-3.858,0.645-7.933,4.103-9.933
			l32.487-18.802c2.729-1.58,6.093-1.584,8.826-0.011c2.733,1.573,4.419,4.485,4.423,7.638c0.004,3.153-1.675,6.069-4.403,7.649
			l-32.487,18.802C208.94,230.255,207.417,230.666,205.866,230.664z"/>
		<path style="fill:#6D5A61;" d="M70.63,308.966c-3.996,0.006-7.497-2.674-8.534-6.533c-1.037-3.859,0.648-7.933,4.108-9.932
			l22.599-13.069c2.729-1.578,6.092-1.581,8.824-0.007c2.731,1.574,4.416,4.486,4.418,7.638c0.003,3.152-1.677,6.067-4.406,7.645
			l-22.6,13.069C73.701,308.557,72.179,308.967,70.63,308.966z"/>
	</g>
</g>
<g>
</g>
<g>
</g>
<g>
</g>
<g>
</g>
<g>
</g>
<g>
</g>
<g>
</g>
<g>
</g>
<g>
</g>
<g>
</g>
<g>
</g>
<g>
</g>
<g>
</g>
<g>
</g>
<g>
</g>
</svg>
