<?xml version="1.0" encoding="iso-8859-1"?>
<!-- Generator: Adobe Illustrator 19.0.0, SVG Export Plug-In . SVG Version: 6.00 Build 0)  -->
<svg version="1.1" id="Capa_1" xmlns="http://www.w3.org/2000/svg" xmlns:xlink="http://www.w3.org/1999/xlink" x="0px" y="0px"
	 viewBox="0 0 512 512" style="enable-background:new 0 0 512 512;" xml:space="preserve">
<g>
	<path style="fill:#F4CD1E;" d="M416.234,416.234c-144.427,144.427-284.903,41.531-322.631,79.259
		c-37.654,37.654-76.203-0.894-76.203-0.894s-38.549-38.549-0.894-76.203c37.728-37.728-65.168-178.204,79.259-322.631
		s284.903-41.531,322.631-79.259c37.654-37.654,76.203,0.894,76.203,0.894s38.549,38.549,0.894,76.203
		C457.766,131.332,560.661,271.807,416.234,416.234z"/>
	<g>
		<path style="fill:#F6DB6D;" d="M294.457,60.328c-0.155,0-0.31,0-0.465-0.009c-4.198-0.224-8.445-0.348-12.741-0.371
			c-4.302,0-8.586,0.052-12.948,0.267c-3.163,0.177-6.178-1.353-7.902-4.01c-1.724-2.657-1.892-6.035-0.441-8.851
			c1.451-2.816,4.299-4.638,7.464-4.777c4.69-0.224,9.31-0.276,13.931-0.285c4.569,0.026,9.078,0.164,13.552,0.388
			c4.778,0.249,8.488,4.259,8.366,9.041C303.15,56.505,299.241,60.321,294.457,60.328L294.457,60.328z"/>
		<path style="fill:#F6DB6D;" d="M74.586,190.862c-1.441,0.002-2.86-0.353-4.129-1.035c-2.069-1.095-3.618-2.969-4.303-5.207
			c-0.686-2.238-0.453-4.658,0.648-6.724c2.81-5.293,5.879-10.56,9.129-15.655c3.362-5.284,7.043-10.595,10.922-15.767
			c3.931-5.25,8.259-10.595,12.862-15.879c4.647-5.336,9.672-10.707,14.922-15.957c5.25-5.25,10.621-10.276,15.957-14.922
			c5.284-4.603,10.629-8.931,15.888-12.871c5.164-3.871,10.474-7.552,15.776-10.922c5.078-3.241,10.345-6.31,15.638-9.121
			c5.129-2.724,10.345-5.224,15.5-7.44c5.103-2.207,10.25-4.19,15.31-5.905c4.948-1.681,10.035-3.19,15.095-4.474
			c3.055-0.779,6.294,0.131,8.497,2.387c2.202,2.256,3.034,5.516,2.181,8.552s-3.26,5.385-6.315,6.165
			c-4.621,1.181-9.259,2.552-13.776,4.095c-4.621,1.56-9.336,3.379-14.009,5.388c-4.724,2.043-9.509,4.336-14.215,6.828
			c-4.871,2.586-9.724,5.422-14.422,8.414c-4.931,3.138-9.853,6.552-14.664,10.164c-4.922,3.681-9.931,7.733-14.879,12.052
			c-5.043,4.388-10.112,9.129-15.078,14.095c-4.965,4.966-9.707,10.034-14.095,15.078c-4.319,4.948-8.371,9.957-12.043,14.871
			c-3.621,4.819-7.034,9.741-10.164,14.655c-3,4.716-5.836,9.569-8.431,14.448C80.859,189.062,77.856,190.867,74.586,190.862z"/>
	</g>
	<g>
		<path style="fill:#F6AB27;" d="M211.862,459.302c-1.153-0.014-2.293-0.254-3.353-0.707c-1.069-0.45-2.054-1.077-2.914-1.854
			c-2.528-2.529-3.262-6.342-1.854-9.629c0.407-1.09,1.039-2.083,1.854-2.914c3.543-3.259,8.992-3.259,12.534,0
			c0.815,0.831,1.447,1.823,1.854,2.914c0.943,2.139,0.943,4.576,0,6.716c-0.449,1.069-1.075,2.054-1.854,2.914
			C216.467,458.399,214.21,459.321,211.862,459.302L211.862,459.302z"/>
		<path style="fill:#F6AB27;" d="M249.552,446.759c-1.181-0.011-2.348-0.248-3.44-0.698c-1.076-0.43-2.043-1.096-2.828-1.948
			c-1.644-1.636-2.566-3.862-2.56-6.181c-0.015-1.176,0.195-2.343,0.621-3.44c0.46-1.058,1.119-2.017,1.94-2.828
			c0.808-0.823,1.769-1.482,2.828-1.94c2.179-0.879,4.614-0.879,6.793,0c1.059,0.458,2.019,1.117,2.828,1.94
			c0.848,0.787,1.511,1.753,1.94,2.828c0.457,1.09,0.697,2.258,0.707,3.44c-0.006,2.334-0.961,4.566-2.646,6.181
			C254.128,445.812,251.89,446.77,249.552,446.759z"/>
		<path style="fill:#F6AB27;" d="M218.13,427.871c-2.348,0.023-4.607-0.9-6.267-2.56c-1.66-1.66-2.583-3.919-2.56-6.267
			c0.015-2.936,1.488-5.672,3.931-7.3c2.443-1.628,5.535-1.936,8.25-0.821c1.101,0.427,2.095,1.089,2.914,1.94
			c0.797,0.812,1.427,1.773,1.854,2.828c0.453,1.061,0.693,2.2,0.707,3.353c0.015,1.176-0.195,2.344-0.621,3.44
			c-0.942,2.155-2.681,3.863-4.853,4.767C220.418,427.679,219.278,427.89,218.13,427.871L218.13,427.871z"/>
		<path style="fill:#F6AB27;" d="M180.431,440.491c-1.154-0.01-2.294-0.25-3.353-0.707c-1.056-0.458-2.014-1.117-2.819-1.94
			c-1.69-1.648-2.647-3.907-2.655-6.268c0.023-1.152,0.263-2.29,0.707-3.353c0.429-1.077,1.095-2.043,1.948-2.828
			c2.077-2.079,5.061-2.973,7.94-2.379c0.539,0.105,1.07,0.252,1.586,0.44c0.621,0.267,1.06,0.535,1.595,0.793
			c0.461,0.357,0.901,0.74,1.319,1.147c0.824,0.81,1.485,1.769,1.948,2.828c0.422,1.067,0.63,2.206,0.612,3.353
			c0.027,1.179-0.181,2.351-0.612,3.448c-0.463,1.055-1.125,2.012-1.948,2.819c-0.805,0.823-1.763,1.482-2.819,1.94
			C182.787,440.242,181.616,440.482,180.431,440.491z"/>
		<path style="fill:#F6AB27;" d="M243.285,402.802c-1.182-0.005-2.351-0.246-3.44-0.707c-1.076-0.427-2.042-1.089-2.828-1.94
			c-1.655-1.629-2.579-3.859-2.56-6.181c-0.015-1.176,0.195-2.343,0.621-3.44c1.109-2.742,3.527-4.738,6.429-5.308
			c2.902-0.57,5.895,0.363,7.959,2.481c1.691,1.629,2.647,3.876,2.647,6.224s-0.955,4.595-2.647,6.224
			c-0.785,0.85-1.752,1.513-2.828,1.94C245.577,402.547,244.438,402.788,243.285,402.802L243.285,402.802z"/>
		<path style="fill:#F6AB27;" d="M274.621,421.604c-2.321,0.025-4.55-0.9-6.172-2.56c-1.899-1.855-2.854-4.471-2.597-7.113
			c0.256-2.642,1.697-5.026,3.916-6.481c0.449-0.351,0.957-0.619,1.5-0.793c0.527-0.269,1.095-0.447,1.681-0.526
			c1.131-0.267,2.309-0.267,3.44,0c0.583,0.092,1.15,0.269,1.681,0.526c0.534,0.194,1.039,0.461,1.5,0.793l1.319,1.06
			c0.812,0.852,1.471,1.838,1.948,2.914c1.122,2.731,0.804,5.842-0.847,8.29S277.573,421.621,274.621,421.604L274.621,421.604z"/>
	</g>
</g>
<g>
</g>
<g>
</g>
<g>
</g>
<g>
</g>
<g>
</g>
<g>
</g>
<g>
</g>
<g>
</g>
<g>
</g>
<g>
</g>
<g>
</g>
<g>
</g>
<g>
</g>
<g>
</g>
<g>
</g>
</svg>
