<?xml version="1.0" encoding="iso-8859-1"?>
<!-- Generator: Adobe Illustrator 19.0.0, SVG Export Plug-In . SVG Version: 6.00 Build 0)  -->
<svg version="1.1" id="Capa_1" xmlns="http://www.w3.org/2000/svg" xmlns:xlink="http://www.w3.org/1999/xlink" x="0px" y="0px"
	 viewBox="0 0 512.002 512.002" style="enable-background:new 0 0 512.002 512.002;" xml:space="preserve">
<path style="fill:#4C8056;" d="M187.679,283.455l-0.794-8.828c-4.135-29.385,5.28-59.059,25.6-80.684
	c44.844-44.756,131.443-30.808,193.501,31.25s76.005,148.657,31.25,193.501c-22.731,21.169-54.044,30.507-84.657,25.247
	L187.679,283.455z"/>
<g>
	<path style="fill:#71C285;" d="M366.349,397.243c-0.085,16.555-4.86,32.746-13.771,46.698
		c-24.717,40.077-80.419,68.061-145.125,68.061c-87.746,0-158.897-51.377-158.897-114.759c0-58.527,60.734-106.814,139.123-113.788
		c6.569-0.682,13.17-1.006,19.774-0.971C295.199,282.484,366.349,333.861,366.349,397.243z"/>
	<path style="fill:#71C285;" d="M423.06,326.614c-3.867-0.003-7.282-2.522-8.427-6.216c-7.998-24.197-21.665-46.132-39.862-63.974
		c-3.433-3.448-3.43-9.023,0.007-12.467c3.437-3.444,9.012-3.459,12.467-0.033c20.223,19.88,35.395,44.31,44.25,71.25
		c0.829,2.679,0.336,5.593-1.329,7.85C428.503,325.281,425.865,326.614,423.06,326.614L423.06,326.614z"/>
	<path style="fill:#71C285;" d="M425.522,379.588c-2.775-0.003-5.388-1.309-7.055-3.527c-1.668-2.218-2.196-5.091-1.428-7.757
		c1.428-5.055,2.227-10.267,2.379-15.517c0.055-2.349,1.055-4.577,2.774-6.178c1.719-1.602,4.012-2.442,6.359-2.33
		c2.34,0.081,4.551,1.089,6.148,2.801c1.597,1.712,2.447,3.989,2.365,6.328c-0.205,6.704-1.236,13.358-3.069,19.81
		C432.902,376.989,429.449,379.585,425.522,379.588L425.522,379.588z"/>
</g>
<g>
	<path style="fill:#4C8056;" d="M323.707,379.588c-3.175,0.002-6.108-1.699-7.681-4.457c-1.548-2.705-3.304-5.285-5.254-7.715
		c-1.965-2.467-2.465-5.795-1.311-8.73s3.786-5.032,6.905-5.5s6.251,0.763,8.216,3.23c2.515,3.146,4.785,6.48,6.788,9.974
		c1.557,2.731,1.544,6.085-0.034,8.804C329.757,377.913,326.851,379.587,323.707,379.588L323.707,379.588z"/>
	<path style="fill:#4C8056;" d="M278.069,341.329c-1.266-0.001-2.517-0.274-3.668-0.802c-21.071-9.342-43.891-14.083-66.939-13.905
		c-4.875,0-8.828-3.952-8.828-8.828s3.952-8.828,8.828-8.828c25.583-0.175,50.908,5.112,74.284,15.509
		c3.777,1.726,5.84,5.851,4.955,9.909C285.815,338.442,282.221,341.333,278.069,341.329L278.069,341.329z"/>
	<ellipse style="fill:#4C8056;" cx="119.18" cy="397.24" rx="35.31" ry="44.14"/>
</g>
<path style="fill:#7F5B53;" d="M207.457,203.036c-1.962,0.004-3.869-0.652-5.414-1.862l-79.457-61.793
	c-2.5-1.932-3.777-5.053-3.348-8.183c0.43-3.13,2.5-5.792,5.428-6.979c2.928-1.187,6.268-0.717,8.755,1.231l79.457,61.793
	c2.98,2.314,4.158,6.266,2.933,9.835C214.588,200.646,211.23,203.04,207.457,203.036L207.457,203.036z"/>
<path style="fill:#4FBA6F;" d="M278.651,0.031c2.199-0.2,4.376,0.572,5.957,2.114s2.408,3.699,2.262,5.903
	c-7.066,32.656-22.561,62.891-44.944,87.697c-32.674,31.869-58.206,33.547-72.893,19.222s-0.106-51.774,32.568-83.643
	C226.156,7.374,262.237,1.481,278.651,0.031z"/>
<path style="fill:#7F5B53;" d="M142.901,152.829c-3.57-0.001-6.788-2.152-8.154-5.45c-1.366-3.298-0.611-7.094,1.913-9.619
	l55.724-55.724c3.456-3.394,9.001-3.369,12.426,0.056c3.425,3.425,3.45,8.97,0.056,12.426l-55.724,55.724
	C147.489,151.901,145.242,152.832,142.901,152.829L142.901,152.829z"/>
<g>
</g>
<g>
</g>
<g>
</g>
<g>
</g>
<g>
</g>
<g>
</g>
<g>
</g>
<g>
</g>
<g>
</g>
<g>
</g>
<g>
</g>
<g>
</g>
<g>
</g>
<g>
</g>
<g>
</g>
</svg>
