<?xml version="1.0" encoding="iso-8859-1"?>
<!-- Generator: Adobe Illustrator 19.0.0, SVG Export Plug-In . SVG Version: 6.00 Build 0)  -->
<svg version="1.1" id="Capa_1" xmlns="http://www.w3.org/2000/svg" xmlns:xlink="http://www.w3.org/1999/xlink" x="0px" y="0px"
	 viewBox="0 0 512 512" style="enable-background:new 0 0 512 512;" xml:space="preserve">
<path style="fill:#71C285;" d="M508.999,278.068c1.985-11.666,2.989-23.477,3.001-35.31c0-126.764-114.582-229.517-256-229.517
	S0,115.993,0,242.758c0,96.397,66.295,178.935,160.309,212.921L508.999,278.068z"/>
<path style="fill:#4C8056;" d="M512,278.068c0,121.884-98.806,220.69-220.69,220.69S70.62,399.953,70.62,278.068h35.31
	c73.563,0.736,82.979,88.276,185.379,88.276s172.138,14.124,172.138-88.276H512z"/>
<path style="fill:#D75E72;" d="M476.69,278.068c0,102.382-82.997,185.379-185.379,185.379s-185.379-82.997-185.379-185.379h209.037
	c3.679,0.058,6.796,2.729,7.416,6.356c3.017,14.065,15.452,24.109,29.837,24.099c1.304,0.018,2.606-0.1,3.885-0.353
	c5.362,9.593,15.493,15.537,26.483,15.537s21.121-5.943,26.483-15.537c1.309,0.249,2.64,0.367,3.972,0.353
	c14.385,0.009,26.82-10.035,29.836-24.099c0.62-3.627,3.736-6.298,7.416-6.356H476.69z"/>
<g>
	<path style="fill:#802D40;" d="M291.31,366.344c-2.342,0.001-4.588-0.928-6.244-2.584c-1.656-1.656-2.585-3.902-2.584-6.244
		v-17.655c0-4.875,3.952-8.828,8.828-8.828s8.828,3.952,8.828,8.828v17.655c0.001,2.342-0.928,4.588-2.584,6.244
		C295.898,365.417,293.652,366.346,291.31,366.344z"/>
	<path style="fill:#802D40;" d="M291.31,428.138c-2.342,0.001-4.588-0.928-6.244-2.584c-1.656-1.656-2.585-3.902-2.584-6.244
		v-17.655c0-4.875,3.952-8.828,8.828-8.828s8.828,3.952,8.828,8.828v17.655c0.001,2.342-0.928,4.588-2.584,6.244
		C295.898,427.209,293.652,428.138,291.31,428.138L291.31,428.138z"/>
	<path style="fill:#802D40;" d="M414.905,375.172c-2.615,0.006-5.098-1.15-6.776-3.155l-11.345-13.526
		c-3.133-3.737-2.643-9.307,1.095-12.44c3.737-3.133,9.307-2.643,12.44,1.095l11.345,13.526c2.204,2.628,2.686,6.294,1.237,9.402
		C421.452,373.182,418.335,375.169,414.905,375.172z"/>
	<path style="fill:#802D40;" d="M249.966,347.62c-2.879-0.003-5.575-1.408-7.226-3.766c-1.651-2.358-2.049-5.373-1.067-8.079
		l6.034-16.586c1.076-2.965,3.653-5.13,6.76-5.679c3.106-0.549,6.269,0.602,8.297,3.019c2.027,2.417,2.611,5.732,1.53,8.695
		l-6.034,16.586C256.991,345.297,253.677,347.62,249.966,347.62L249.966,347.62z"/>
	<path style="fill:#802D40;" d="M228.828,405.688c-2.879-0.003-5.575-1.408-7.226-3.766c-1.651-2.358-2.049-5.373-1.067-8.079
		l6.034-16.586c1.669-4.576,6.73-6.935,11.308-5.27c4.578,1.665,6.94,6.725,5.278,11.304l-6.034,16.586
		C235.853,403.367,232.539,405.688,228.828,405.688z"/>
	<path style="fill:#802D40;" d="M353.103,405.688c-3.711,0-7.026-2.322-8.293-5.81l-6.034-16.586
		c-1.662-4.579,0.7-9.639,5.278-11.304c4.578-1.665,9.639,0.693,11.308,5.27l6.034,16.586c0.982,2.706,0.584,5.721-1.067,8.079
		C358.679,404.281,355.982,405.687,353.103,405.688L353.103,405.688z"/>
	<path style="fill:#802D40;" d="M207.439,327.836c-3.429-0.002-6.547-1.99-7.996-5.098c-1.449-3.108-0.966-6.774,1.237-9.402
		l11.345-13.526c2.027-2.418,5.189-3.571,8.296-3.024c3.107,0.546,5.687,2.709,6.767,5.672c1.081,2.964,0.498,6.279-1.529,8.697
		l-11.345,13.526C212.537,326.687,210.055,327.842,207.439,327.836L207.439,327.836z"/>
	<path style="fill:#802D40;" d="M167.715,375.172c-3.429-0.002-6.547-1.99-7.996-5.098c-1.449-3.108-0.966-6.774,1.237-9.402
		l11.345-13.526c3.133-3.737,8.702-4.228,12.44-1.095c3.737,3.133,4.228,8.702,1.095,12.44l-11.345,13.526
		C172.813,374.023,170.33,375.178,167.715,375.172z"/>
</g>
<g>
	<path style="fill:#4C8056;" d="M459.362,178.611c-3.099,0.004-5.973-1.619-7.569-4.276c-11.515-18.505-26.78-34.393-44.81-46.638
		c-20.647-14.259-43.473-25.07-67.586-32.009c-54.488-15.707-112.305-15.707-166.793,0c-24.114,6.939-46.94,17.749-67.586,32.009
		c-18.03,12.245-33.295,28.132-44.81,46.638c-2.514,4.175-7.937,5.522-12.112,3.009c-4.175-2.514-5.522-7.937-3.009-12.112
		c12.777-20.615,29.734-38.324,49.776-51.983c22.211-15.353,46.766-27.001,72.707-34.491c57.766-16.736,119.096-16.736,176.862,0
		c25.941,7.49,50.496,19.139,72.707,34.491c20.042,13.659,36.999,31.367,49.776,51.983c1.208,2.005,1.57,4.408,1.005,6.679
		s-2.008,4.226-4.014,5.433C462.536,178.175,460.964,178.613,459.362,178.611z"/>
	<path style="fill:#4C8056;" d="M467.871,242.758c-2.787,0.004-5.411-1.31-7.078-3.543c-12.666-16.05-28.511-29.31-46.543-38.948
		c-22.225-12.247-46.054-21.326-70.793-26.974c-28.662-6.737-58.015-10.087-87.457-9.983c-29.442-0.105-58.795,3.246-87.457,9.983
		c-24.739,5.648-48.568,14.728-70.793,26.974c-18.032,9.638-33.877,22.898-46.543,38.948c-1.884,2.535-4.98,3.87-8.117,3.5
		s-5.837-2.389-7.08-5.293c-1.243-2.904-0.839-6.251,1.06-8.776c14.122-18.017,31.824-32.91,51.991-43.741
		c23.66-13.065,49.033-22.754,75.379-28.784c30.005-7.061,60.736-10.574,91.56-10.465c30.825-0.108,61.555,3.404,91.56,10.466
		c26.347,6.03,51.719,15.719,75.379,28.784c20.167,10.831,37.87,25.725,51.991,43.741c1.998,2.675,2.317,6.248,0.823,9.234
		C474.26,240.865,471.21,242.753,467.871,242.758z"/>
</g>
<g>
</g>
<g>
</g>
<g>
</g>
<g>
</g>
<g>
</g>
<g>
</g>
<g>
</g>
<g>
</g>
<g>
</g>
<g>
</g>
<g>
</g>
<g>
</g>
<g>
</g>
<g>
</g>
<g>
</g>
</svg>
