<?xml version="1.0" encoding="iso-8859-1"?>
<!-- Generator: Adobe Illustrator 19.0.0, SVG Export Plug-In . SVG Version: 6.00 Build 0)  -->
<svg version="1.1" id="Capa_1" xmlns="http://www.w3.org/2000/svg" xmlns:xlink="http://www.w3.org/1999/xlink" x="0px" y="0px"
	 viewBox="0 0 512 512" style="enable-background:new 0 0 512 512;" xml:space="preserve">
<g>
	<path style="fill:#F6DB6D;" d="M389.305,114.759l-0.03-0.058l-0.004,0.058H122.728l-0.004-0.058l-0.029,0.058H88.276V476.69
		c0,19.501,15.809,35.31,35.31,35.31h264.828c19.501,0,35.31-15.809,35.31-35.31V114.759H389.305z"/>
	<g>
		<path style="fill:#E6E6E6;" d="M97.103,0h317.793c9.751,0,17.655,7.904,17.655,17.655v79.448H79.448V17.655
			C79.448,7.904,87.353,0,97.103,0z"/>
		<path style="fill:#E6E6E6;" d="M432.552,88.218l7.865,23.35c2.872,10.243-1.596,21.126-10.838,26.395
			c-9.241,5.269-20.883,3.572-28.235-4.117c-4.916-5.773-8.98-12.22-12.067-19.146l-0.005,0.058
			c-8.821,16.316-25.876,26.483-44.423,26.483s-35.602-10.167-44.423-26.483c-8.822,16.316-25.877,26.483-44.425,26.483
			s-35.604-10.167-44.425-26.483c-8.567,16.558-25.786,26.822-44.425,26.483c-18.639,0.34-35.857-9.924-44.421-26.483l-0.004-0.058
			c-3.087,6.925-7.151,13.373-12.067,19.146c-7.352,7.689-18.994,9.387-28.235,4.117s-13.71-16.152-10.838-26.395l7.864-23.35
			H432.552z"/>
	</g>
	<path style="fill:#ADADAD;" d="M79.448,52.966h353.103c9.751,0,17.655,7.904,17.655,17.655l0,0c0,9.751-7.905,17.655-17.655,17.655
		H79.448c-9.751,0-17.655-7.904-17.655-17.655l0,0C61.793,60.87,69.698,52.966,79.448,52.966z"/>
	<rect x="88.276" y="185.379" style="fill:#EEAF4B;" width="335.448" height="229.517"/>
	<polygon style="fill:#C29C60;" points="274.202,229.517 237.798,229.517 211.862,264.828 237.798,300.138 274.202,300.138 
		300.138,264.828 	"/>
	<g>
		<polygon style="fill:#B38338;" points="212.409,264.828 176.004,264.828 150.069,300.138 176.004,335.448 212.409,335.448 
			238.345,300.138 		"/>
		<polygon style="fill:#B38338;" points="335.996,264.828 299.591,264.828 273.655,300.138 299.591,335.448 335.996,335.448 
			361.931,300.138 		"/>
	</g>
	<polygon style="fill:#F5CF93;" points="274.202,300.138 237.798,300.138 211.862,335.448 237.798,370.759 274.202,370.759 
		300.138,335.448 	"/>
</g>
<g>
</g>
<g>
</g>
<g>
</g>
<g>
</g>
<g>
</g>
<g>
</g>
<g>
</g>
<g>
</g>
<g>
</g>
<g>
</g>
<g>
</g>
<g>
</g>
<g>
</g>
<g>
</g>
<g>
</g>
</svg>
