<?xml version="1.0" encoding="iso-8859-1"?>
<!-- Generator: Adobe Illustrator 19.0.0, SVG Export Plug-In . SVG Version: 6.00 Build 0)  -->
<svg version="1.1" id="Layer_1" xmlns="http://www.w3.org/2000/svg" xmlns:xlink="http://www.w3.org/1999/xlink" x="0px" y="0px"
	 viewBox="0 0 510.924 510.924" style="enable-background:new 0 0 510.924 510.924;" xml:space="preserve">
<g transform="translate(0 -1)">
	<g>
		<path style="fill:#D1CEC1;" d="M503.023,399.773l-14.794,13.276c-47.23,42.37-103.496,73.414-164.532,90.768l-28.043,7.976
			c-2.138,0.611-4.267-0.997-4.267-3.216V180.655l5.291-1.132c78.632-16.851,150.717-56.069,207.585-112.936l0,0
			c0.997-0.997,2.704-0.287,2.704,1.123v323.225C506.966,394.303,505.538,397.519,503.023,399.773"/>
		<path style="fill:#D1CEC1;" d="M504.26,66.59L504.26,66.59c0.746-0.746,1.886-0.539,2.416,0.198
			c0.171-0.961,0.296-1.931,0.296-2.91C506.973,29.151,394.369,1,255.464,1S3.955,29.151,3.955,63.877
			s112.604,62.877,251.509,62.877c91.756,0,172.014-12.288,215.938-30.639C482.828,86.89,493.804,77.045,504.26,66.59"/>
	</g>
	<g>
		<path style="fill:#ECE8D8;" d="M254.726,81.847c-53.266,0-93.543-6.288-118.308-13.06c-4.985-1.365-4.985-8.444,0-9.809
			c24.765-6.773,65.042-13.06,118.308-13.06c51.182,0,90.372,5.803,115.335,12.27c5.111,1.32,5.003,8.641-0.144,9.854
			c-18.935,4.446-49.556,10.851-73.279,12.432C283.164,81.371,269.08,81.847,254.726,81.847"/>
		<path style="fill:#ECE8D8;" d="M291.39,180.654l5.291-1.132c63.569-13.626,122.853-41.876,173.29-82.252
			c0.234-0.189,0.063-0.584-0.225-0.467c-44.266,17.974-123.661,29.956-214.285,29.956c-138.905,0-251.509-28.151-251.509-62.877
			V387.25c0,34.726,112.604,62.877,251.509,62.877c12.207,0,24.19-0.234,35.93-0.647V180.654z"/>
		<path style="fill:#ECE8D8;" d="M417.145,189.636c-4.958,0-8.982-4.015-8.982-8.982v-17.965c0-4.967,4.024-8.982,8.982-8.982
			c4.958,0,8.982,4.015,8.982,8.982v17.965C426.127,185.621,422.103,189.636,417.145,189.636 M417.145,243.531
			c-4.958,0-8.982-4.015-8.982-8.982v-17.965c0-4.967,4.024-8.982,8.982-8.982c4.958,0,8.982,4.015,8.982,8.982v17.965
			C426.127,239.516,422.103,243.531,417.145,243.531 M417.145,297.426c-4.958,0-8.982-4.015-8.982-8.982v-17.965
			c0-4.967,4.024-8.982,8.982-8.982c4.958,0,8.982,4.015,8.982,8.982v17.965C426.127,293.41,422.103,297.426,417.145,297.426
			 M417.145,351.32c-4.958,0-8.982-4.015-8.982-8.982v-17.965c0-4.967,4.024-8.982,8.982-8.982c4.958,0,8.982,4.015,8.982,8.982
			v17.965C426.127,347.305,422.103,351.32,417.145,351.32 M417.145,405.215c-4.958,0-8.982-4.015-8.982-8.982v-17.965
			c0-4.967,4.024-8.982,8.982-8.982c4.958,0,8.982,4.015,8.982,8.982v17.965C426.127,401.2,422.103,405.215,417.145,405.215
			 M417.145,459.11c-4.958,0-8.982-4.015-8.982-8.982v-17.965c0-4.967,4.024-8.982,8.982-8.982c4.958,0,8.982,4.015,8.982,8.982
			v17.965C426.127,455.095,422.103,459.11,417.145,459.11"/>
	</g>
	<path style="fill:#D1CEC1;" d="M120.724,144.724c-4.958,0-8.982-4.015-8.982-8.982v-17.965c0-4.967,4.024-8.982,8.982-8.982
		c4.958,0,8.982,4.015,8.982,8.982v17.965C129.706,140.709,125.682,144.724,120.724,144.724 M120.724,198.619
		c-4.958,0-8.982-4.015-8.982-8.982v-17.965c0-4.967,4.024-8.982,8.982-8.982c4.958,0,8.982,4.015,8.982,8.982v17.965
		C129.706,194.603,125.682,198.619,120.724,198.619 M120.724,252.513c-4.958,0-8.982-4.015-8.982-8.982v-17.965
		c0-4.967,4.024-8.982,8.982-8.982c4.958,0,8.982,4.015,8.982,8.982v17.965C129.706,248.498,125.682,252.513,120.724,252.513
		 M120.724,306.408c-4.958,0-8.982-4.015-8.982-8.982v-17.965c0-4.967,4.024-8.982,8.982-8.982c4.958,0,8.982,4.015,8.982,8.982
		v17.965C129.706,302.393,125.682,306.408,120.724,306.408 M120.724,360.303c-4.958,0-8.982-4.015-8.982-8.982v-17.965
		c0-4.967,4.024-8.982,8.982-8.982c4.958,0,8.982,4.015,8.982,8.982v17.965C129.706,356.288,125.682,360.303,120.724,360.303
		 M120.724,414.197c-4.958,0-8.982-4.015-8.982-8.982V387.25c0-4.967,4.024-8.982,8.982-8.982c4.958,0,8.982,4.015,8.982,8.982
		v17.965C129.706,410.182,125.682,414.197,120.724,414.197"/>
</g>
<g>
</g>
<g>
</g>
<g>
</g>
<g>
</g>
<g>
</g>
<g>
</g>
<g>
</g>
<g>
</g>
<g>
</g>
<g>
</g>
<g>
</g>
<g>
</g>
<g>
</g>
<g>
</g>
<g>
</g>
</svg>
