<?xml version="1.0" encoding="iso-8859-1"?>
<!-- Generator: Adobe Illustrator 19.0.0, SVG Export Plug-In . SVG Version: 6.00 Build 0)  -->
<svg version="1.1" id="Capa_1" xmlns="http://www.w3.org/2000/svg" xmlns:xlink="http://www.w3.org/1999/xlink" x="0px" y="0px"
	 viewBox="0 0 512.022 512.022" style="enable-background:new 0 0 512.022 512.022;" xml:space="preserve">
<g>
	<path style="fill:#527F72;" d="M432.564,238.344c-9.976,58.441-45.782,109.264-97.457,138.328
		c-13.62,7.536-28.244,13.095-43.432,16.508l8.474,108.668l-4.767,2.03c-25.124,10.859-53.617,10.859-78.741,0l-4.768-2.03
		l8.474-108.668c-15.187-3.413-29.811-8.972-43.432-16.508c-51.674-29.063-87.481-79.886-97.457-138.328l17.655,8.828v-15.448
		c-0.012-42.331,7.614-84.316,22.51-123.939l3.972-10.681l20.303,32.397c6.693-29.093,19.847-56.307,38.487-79.625
		c2.695-3.871,7.113-6.179,11.83-6.179s9.135,2.308,11.83,6.179c2.698,3.225,5.231,6.584,7.591,10.064
		c7.147-19.482,17.467-37.647,30.543-53.76C246.877,2.308,251.295,0,256.012,0c4.717,0,9.135,2.308,11.83,6.179
		c13.057,16.094,23.375,34.227,30.543,53.672c0.265,0.794,0.617,1.588,0.883,2.383c2.824-4.15,5.826-8.121,8.915-11.918
		c2.695-3.871,7.113-6.179,11.83-6.179s9.135,2.308,11.83,6.179c18.086,22.545,30.986,48.796,37.781,76.888l18.803-30.101
		l3.972,10.681c14.897,39.623,22.522,81.609,22.51,123.939v15.448L432.564,238.344z"/>
	<path style="fill:#527F72;" d="M344.553,167.282l-0.265,0.441"/>
</g>
<path style="fill:#71C285;" d="M185.303,335.271c-3.823,11.862-6.455,24.074-7.857,36.458l-0.529,4.943
	c-51.674-29.063-87.481-79.886-97.457-138.328l17.655,8.828l7.503,3.795c7.692,3.777,15.047,8.207,21.982,13.241
	c19.942,14.047,36.548,32.311,48.639,53.496L185.303,335.271z"/>
<path style="fill:#4C8056;" d="M335.107,376.672c-13.62,7.536-28.244,13.095-43.432,16.508c-23.468,5.414-47.86,5.414-71.328,0
	c-15.187-3.413-29.811-8.972-43.431-16.508l0.53-4.943c1.401-12.383,4.033-24.596,7.857-36.458
	c9.488-29.605,26.312-56.328,48.905-77.683c1.766-1.588,3.53-3.265,5.385-4.855v-0.088c9.407-8.21,23.432-8.21,32.839,0v0.088
	c1.854,1.589,3.619,3.266,5.385,4.855c22.593,21.355,39.416,48.078,48.905,77.683c3.823,11.862,6.455,24.074,7.857,36.458
	L335.107,376.672z"/>
<path style="fill:#71C285;" d="M432.564,238.344c-9.976,58.441-45.782,109.264-97.457,138.328l-0.53-4.943
	c-1.401-12.383-4.033-24.596-7.857-36.458l10.063-17.567c12.091-21.185,28.697-39.449,48.639-53.496
	c6.935-5.034,14.289-9.464,21.982-13.241l7.503-3.795L432.564,238.344z"/>
<path style="fill:#4C8056;" d="M299.267,62.234c-8.855,13.002-16.116,27.021-21.628,41.754c-0.794,2.207-1.588,4.414-2.383,6.709
	c-3.619-5.643-7.569-11.066-11.828-16.243c-2.695-3.871-7.113-6.179-11.83-6.179c-4.717,0-9.135,2.308-11.83,6.179
	c-1.588,1.854-3.088,3.885-4.501,5.826c-5.517-14.288-12.781-27.839-21.628-40.342c7.147-19.482,17.467-37.647,30.543-53.76
	C246.877,2.308,251.295,0,256.012,0c4.717,0,9.135,2.308,11.83,6.179c13.057,16.094,23.375,34.227,30.543,53.672
	C298.65,60.645,299.003,61.44,299.267,62.234z"/>
<g>
	<path style="fill:#4FBA6F;" d="M235.267,100.281c-16.571,22.474-28.295,48.145-34.428,75.387c-2.56-3.707-5.209-7.238-8.032-10.593
		c-2.695-3.871-7.113-6.179-11.83-6.179s-9.135,2.308-11.83,6.179c-0.607,0.698-1.167,1.435-1.677,2.207l-23.569-37.694V129.5
		c6.693-29.093,19.847-56.307,38.487-79.625c2.695-3.871,7.113-6.179,11.83-6.179s9.135,2.308,11.83,6.179
		c2.698,3.225,5.231,6.584,7.591,10.064C222.486,72.442,229.751,85.993,235.267,100.281L235.267,100.281z"/>
	<path style="fill:#4FBA6F;" d="M369.623,127.204l-25.07,40.077c-0.51-0.772-1.07-1.509-1.677-2.207
		c-2.695-3.871-7.113-6.179-11.83-6.179s-9.135,2.308-11.83,6.179c-5.372,6.558-10.268,13.491-14.653,20.746
		c-2.487-12.835-6.03-25.442-10.593-37.694c-4.86-13.119-11.136-25.67-18.716-37.429c0.795-2.295,1.589-4.502,2.383-6.709
		c5.512-14.734,12.773-28.753,21.629-41.754c2.824-4.15,5.826-8.121,8.915-11.918c2.695-3.871,7.113-6.179,11.83-6.179
		s9.135,2.308,11.83,6.179C349.928,72.861,362.828,99.112,369.623,127.204L369.623,127.204z"/>
</g>
<path style="fill:#7ED09E;" d="M385.424,264.209c-19.942,14.047-36.548,32.311-48.639,53.496l-10.063,17.567
	c-9.488-29.605-26.312-56.328-48.905-77.683c4.616-25.312,13.671-49.609,26.748-71.768c4.385-7.255,9.281-14.187,14.653-20.745
	c2.695-3.871,7.113-6.179,11.83-6.179c4.717,0,9.135,2.308,11.83,6.179c0.607,0.698,1.167,1.435,1.677,2.207
	c12.265,15.533,22.007,32.9,28.866,51.465C378.927,233.463,382.949,248.692,385.424,264.209z"/>
<path style="fill:#4C8056;" d="M414.909,231.724v15.448l-7.503,3.795c-7.692,3.777-15.047,8.207-21.982,13.241
	c-2.475-15.516-6.496-30.746-12.005-45.461c-6.86-18.564-16.601-35.932-28.866-51.465l25.07-40.077l18.803-30.102l3.972,10.681
	C407.295,147.407,414.921,189.393,414.909,231.724L414.909,231.724z"/>
<path style="fill:#71C285;" d="M304.564,185.82c-13.077,22.159-22.132,46.455-26.748,71.767c-1.766-1.588-3.53-3.265-5.385-4.855
	v-0.088c-9.407-8.21-23.432-8.21-32.839,0v0.088c-1.854,1.589-3.619,3.266-5.385,4.855c-2.481-13.238-6.114-26.235-10.858-38.84
	c-6.288-14.963-13.817-29.373-22.51-43.08c6.133-27.241,17.856-52.912,34.428-75.386c1.412-1.942,2.913-3.973,4.501-5.826
	c2.695-3.871,7.113-6.179,11.83-6.179c4.717,0,9.135,2.308,11.83,6.179c4.259,5.176,8.209,10.6,11.828,16.243
	c7.58,11.759,13.855,24.31,18.715,37.429C298.534,160.378,302.077,172.985,304.564,185.82z"/>
<path style="fill:#7ED09E;" d="M234.208,257.588c-22.593,21.355-39.416,48.078-48.905,77.683l-10.063-17.567
	c-12.091-21.185-28.697-39.449-48.639-53.496c5.115-35.271,19.186-68.642,40.871-96.926c0.51-0.772,1.07-1.509,1.677-2.207
	c2.695-3.871,7.113-6.179,11.83-6.179s9.135,2.308,11.83,6.179c2.823,3.354,5.472,6.885,8.032,10.593
	c8.693,13.706,16.223,28.116,22.51,43.079C228.094,231.353,231.727,244.349,234.208,257.588z"/>
<path style="fill:#4C8056;" d="M167.471,167.282c-21.685,28.284-35.756,61.656-40.871,96.927
	c-6.935-5.034-14.289-9.464-21.982-13.241l-7.504-3.796v-15.448c-0.012-42.331,7.614-84.316,22.51-123.939l3.972-10.681
	l20.303,32.397v0.088L167.471,167.282z"/>
<g>
</g>
<g>
</g>
<g>
</g>
<g>
</g>
<g>
</g>
<g>
</g>
<g>
</g>
<g>
</g>
<g>
</g>
<g>
</g>
<g>
</g>
<g>
</g>
<g>
</g>
<g>
</g>
<g>
</g>
</svg>
