<?xml version="1.0" encoding="iso-8859-1"?>
<!-- Generator: Adobe Illustrator 19.0.0, SVG Export Plug-In . SVG Version: 6.00 Build 0)  -->
<svg version="1.1" id="Capa_1" xmlns="http://www.w3.org/2000/svg" xmlns:xlink="http://www.w3.org/1999/xlink" x="0px" y="0px"
	 viewBox="0 0 512 512" style="enable-background:new 0 0 512 512;" xml:space="preserve">
<g>
	<path style="fill:#F6AB27;" d="M229.517,44.138L242.293,12.2c2.255-6.926,8.52-11.767,15.791-12.2h6.744
		c5.449,0.674,9.367,5.57,8.828,11.034v33.103H229.517z"/>
	<path style="fill:#F6DB6D;" d="M271.028,512L271.028,512c-9.04-11.919-23.226-11.667-30.057,0l0,0
		c-59.601,0-105.892-47.255-99.06-101.124l15.799-101.911c1.477-11.64,1.576-23.413,0.293-35.076l-11.895-137.219
		c-5.317-48.375,32.222-91.965,85.121-98.84l6.641-0.863c12.036-1.564,24.225-1.564,36.261,0l6.641,0.863
		c52.898,6.875,90.438,50.465,85.121,98.84L352.81,273.89c-1.283,11.663-1.184,23.436,0.293,35.076l16.985,101.911
		C376.92,464.745,330.63,512,271.028,512z"/>
	<path style="fill:#F6AB27;" d="M262.225,300.138h-12.451c-9.037-0.116-17.737,3.43-24.118,9.83l-25.84,26.984
		c-10.881,11.108-17.811,25.484-19.724,40.916l-3.108,27.05c-2.486,26.468,9.919,52.13,32.205,66.622l0.003,0.002
		c9.526,6.404,21.855,6.87,31.837,1.203l0.001-0.001c9.289-5.26,20.657-5.26,29.946,0l0,0c9.983,5.667,22.312,5.201,31.839-1.204
		l0,0c22.284-14.493,34.687-40.153,32.2-66.619l-3.109-27.054c-1.913-15.432-8.843-29.808-19.725-40.917l-25.839-26.983
		C279.962,303.568,271.262,300.022,262.225,300.138L262.225,300.138z"/>
	<g>
		<path style="fill:#FAEDBD;" d="M238.332,81.345c-4.653-0.003-8.505-3.618-8.804-8.262c-0.298-4.644,3.06-8.722,7.674-9.32
			l4.069-0.53c4.876-0.774,9.795-1.254,14.728-1.44c4.875,0,8.828,3.952,8.828,8.828s-3.952,8.828-8.828,8.828
			c-4.169,0.218-8.324,0.65-12.448,1.293l-4.065,0.53C239.104,81.322,238.718,81.346,238.332,81.345L238.332,81.345z"/>
		<path style="fill:#FAEDBD;" d="M183.254,176.547c-4.675-0.005-8.536-3.652-8.806-8.319l-2.017-34.461
			c-1.963-21.518,7.676-42.454,25.302-54.953c3.899-2.926,9.432-2.136,12.358,1.763s2.136,9.432-1.763,12.358
			c-12.605,8.782-19.591,23.602-18.345,38.914l0.099,0.927l1.996,34.435c0.135,2.338-0.664,4.633-2.222,6.382
			c-1.558,1.748-3.746,2.806-6.084,2.941C183.599,176.543,183.427,176.547,183.254,176.547z"/>
	</g>
	<path style="fill:#FCCC88;" d="M256,300.138v168.695c-5.251-0.001-10.416,1.336-15.007,3.884
		c-4.532,2.625-9.681,3.996-14.919,3.972c-6.005,0.015-11.878-1.769-16.861-5.12c-22.285-14.508-34.692-40.172-32.221-66.648
		l3.09-27.012c1.945-15.445,8.89-29.83,19.774-40.96l25.777-27.012c6.4-6.357,15.079-9.886,24.099-9.799H256z"/>
	<g>
		<path style="fill:#6D5A61;" d="M220.69,370.759c-2.348,0.023-4.607-0.9-6.267-2.56c-1.66-1.66-2.583-3.919-2.56-6.267
			c0.014-0.563,0.073-1.123,0.177-1.677c0.081-0.586,0.258-1.154,0.526-1.681c0.195-0.561,0.463-1.095,0.797-1.586
			c0.353-0.444,0.707-0.884,1.06-1.323c3.515-3.33,9.02-3.33,12.534,0c0.353,0.44,0.707,0.879,1.056,1.323
			c0.334,0.491,0.603,1.025,0.797,1.586c0.267,0.528,0.446,1.096,0.53,1.681c0.102,0.554,0.161,1.114,0.177,1.677
			c-0.035,2.337-0.949,4.574-2.56,6.268c-0.846,0.796-1.834,1.425-2.914,1.854C222.982,370.505,221.843,370.745,220.69,370.759z"/>
		<path style="fill:#6D5A61;" d="M220.69,406.069c-0.592-0.02-1.183-0.079-1.767-0.177c-0.553-0.098-1.089-0.277-1.591-0.53
			c-0.562-0.195-1.095-0.463-1.586-0.797c-0.464-0.323-0.906-0.676-1.324-1.056c-1.612-1.692-2.527-3.93-2.56-6.268
			c0.012-1.154,0.251-2.295,0.703-3.358c0.427-1.08,1.058-2.068,1.857-2.91c0.44-0.353,0.879-0.707,1.323-1.06
			c0.491-0.334,1.025-0.603,1.586-0.797c0.501-0.254,1.037-0.431,1.591-0.526c2.905-0.536,5.892,0.35,8.035,2.383
			c0.778,0.858,1.405,1.842,1.854,2.909c0.453,1.062,0.693,2.203,0.707,3.358c0.023,2.348-0.9,4.607-2.56,6.267
			C225.296,405.169,223.038,406.092,220.69,406.069L220.69,406.069z"/>
		<path style="fill:#6D5A61;" d="M220.69,441.379c-3.569-0.014-6.782-2.168-8.151-5.465c-1.369-3.297-0.626-7.092,1.883-9.631
			c0.827-0.818,1.819-1.451,2.909-1.858c3.289-1.384,7.088-0.651,9.626,1.858c1.611,1.693,2.525,3.931,2.56,6.268
			c-0.02,0.591-0.079,1.18-0.177,1.763c-0.098,0.553-0.277,1.089-0.53,1.591c-0.194,0.563-0.462,1.098-0.797,1.591
			c-0.325,0.462-0.678,0.904-1.056,1.324C225.264,440.43,223.026,441.344,220.69,441.379z"/>
		<path style="fill:#6D5A61;" d="M291.31,441.379c-2.337-0.035-4.575-0.949-6.268-2.56c-0.353-0.444-0.707-0.884-1.06-1.323
			c-0.335-0.492-0.603-1.027-0.797-1.591c-0.254-0.501-0.431-1.037-0.526-1.591c-0.099-0.583-0.158-1.172-0.176-1.763
			c0-4.875,3.952-8.828,8.828-8.828s8.828,3.952,8.828,8.828c-0.02,0.591-0.079,1.18-0.177,1.763
			c-0.098,0.553-0.277,1.089-0.53,1.591c-0.194,0.563-0.462,1.098-0.797,1.591c-0.349,0.44-0.703,0.879-1.056,1.323
			C295.885,440.43,293.647,441.344,291.31,441.379z"/>
		<path style="fill:#6D5A61;" d="M291.31,406.069c-2.348,0.023-4.607-0.9-6.267-2.56c-1.66-1.66-2.583-3.919-2.56-6.267
			c0.012-1.154,0.251-2.295,0.703-3.358c0.449-1.069,1.077-2.053,1.857-2.91c2.54-2.501,6.332-3.233,9.621-1.858
			c1.081,0.428,2.07,1.059,2.914,1.858c0.778,0.858,1.405,1.842,1.854,2.909c0.495,1.049,0.737,2.199,0.706,3.358
			c-0.035,2.337-0.949,4.574-2.56,6.268c-0.846,0.796-1.834,1.425-2.914,1.854C293.617,405.857,292.468,406.099,291.31,406.069
			L291.31,406.069z"/>
		<path style="fill:#6D5A61;" d="M291.31,370.759c-1.155-0.014-2.296-0.254-3.358-0.707c-1.079-0.428-2.066-1.057-2.91-1.854
			c-1.612-1.692-2.527-3.93-2.56-6.267c0.014-0.563,0.073-1.123,0.177-1.677c0.081-0.586,0.258-1.154,0.526-1.681
			c0.195-0.561,0.463-1.095,0.797-1.586c0.324-0.464,0.679-0.906,1.06-1.324c3.514-3.332,9.021-3.332,12.534,0
			c0.353,0.44,0.707,0.879,1.056,1.323c0.334,0.491,0.603,1.025,0.797,1.586c0.267,0.528,0.446,1.096,0.53,1.681
			c0.102,0.554,0.161,1.114,0.177,1.677c0.023,2.348-0.9,4.607-2.56,6.267C295.917,369.859,293.659,370.781,291.31,370.759
			L291.31,370.759z"/>
	</g>
</g>
<g>
</g>
<g>
</g>
<g>
</g>
<g>
</g>
<g>
</g>
<g>
</g>
<g>
</g>
<g>
</g>
<g>
</g>
<g>
</g>
<g>
</g>
<g>
</g>
<g>
</g>
<g>
</g>
<g>
</g>
</svg>
