<?xml version="1.0" encoding="iso-8859-1"?>
<!-- Generator: Adobe Illustrator 19.0.0, SVG Export Plug-In . SVG Version: 6.00 Build 0)  -->
<svg version="1.1" id="Capa_1" xmlns="http://www.w3.org/2000/svg" xmlns:xlink="http://www.w3.org/1999/xlink" x="0px" y="0px"
	 viewBox="0 0 511.96 511.96" style="enable-background:new 0 0 511.96 511.96;" xml:space="preserve">
<path style="fill:#69BF87;" d="M475.674,215.115c-3.807,0.033-7.451,1.554-10.152,4.237c-2.199,2.159-3.625,4.982-4.061,8.033
	l-0.441,3.353c-0.765,5.344-4.486,9.796-9.609,11.498c-5.123,1.702-10.768,0.361-14.579-3.464l-1.059-1.06
	c-5.591-5.56-14.624-5.56-20.215,0l-4.855,4.944c-2.668,2.671-6.288,4.171-10.063,4.171s-7.395-1.5-10.063-4.171l-8.739-8.739
	l-4.943,0.353c1.701-12.184-0.46-24.595-6.179-35.487c0-0.177-0.265-0.353-0.353-0.53l0.53-0.353l117.319-82.008l-5.826,63.294
	c-0.215,3.023,0.493,6.039,2.03,8.651l3.443,5.649c2.615,4.406,2.677,9.873,0.163,14.337
	C485.504,212.287,480.797,215.068,475.674,215.115L475.674,215.115z"/>
<path style="fill:#487E57;" d="M425.662,211.442c-2.836-0.004-5.499-1.369-7.156-3.67c-1.658-2.301-2.11-5.259-1.214-7.95
	c2.847-10.226,11.487-17.789,22-19.259c4.767-0.637,9.614-0.243,14.216,1.155c4.601,1.542,7.093,6.511,5.579,11.121
	c-1.515,4.61-6.468,7.133-11.087,5.646c-2.755-1.201-5.901-1.124-8.594,0.211c-2.693,1.335-4.659,3.791-5.371,6.712
	C432.833,209.011,429.46,211.442,425.662,211.442L425.662,211.442z"/>
<path style="fill:#69BF87;" d="M281.125,50.807c-5.347,0.778-9.799,4.503-11.507,9.629c-1.709,5.126-0.382,10.777,3.428,14.607
	l1.065,1.065c2.676,2.673,4.18,6.3,4.18,10.082s-1.504,7.41-4.18,10.082l-4.885,4.885c-2.676,2.673-4.18,6.3-4.18,10.082
	s1.504,7.41,4.18,10.082l8.705,8.705l2.255,4.634c11.352-1.064,22.769,1.176,32.878,6.45c0.191,0.089,0.361,0.218,0.5,0.377
	l82.414-117.86l-63.313,5.824c-3.017,0.221-6.03-0.478-8.642-2.004l-5.699-3.444c-4.406-2.627-9.882-2.69-14.348-0.166
	s-7.236,7.248-7.258,12.378c-0.016,3.782-1.524,7.405-4.195,10.082c-2.172,2.209-5.012,3.64-8.079,4.071L281.125,50.807z"/>
<path style="fill:#487E57;" d="M309.239,95.02c-4.328-0.001-8.016-3.14-8.71-7.411c-0.694-4.272,1.812-8.416,5.917-9.787
	c2.926-0.706,5.388-2.673,6.723-5.371c1.335-2.698,1.405-5.849,0.191-8.603c-1.432-4.629,1.112-9.551,5.716-11.06
	c4.589-1.504,9.53,0.981,11.06,5.56c1.401,4.601,1.795,9.449,1.155,14.216c-1.469,10.513-9.033,19.153-19.259,22
	C311.132,94.865,310.189,95.019,309.239,95.02z"/>
<path style="fill:#00AA62;" d="M503.127,112.981l-10.505,7.327l-125.587,87.407l-20.598-22.805L485.84,52.129l23.29,35.869
	c2.627,4.08,3.472,9.056,2.338,13.774C510.334,106.491,507.321,110.54,503.127,112.981z"/>
<path style="fill:#487E57;" d="M398.718,8.939l-7.327,10.505l-86.149,123.168l26.115,24.644L465.242,29.324L423.701,2.936
	c-4.08-2.627-9.056-3.472-13.774-2.338S401.159,4.745,398.718,8.939z"/>
<path style="fill:#69BF87;" d="M493.372,7.297c-3.435-3.435-8.13-5.308-12.986-5.182c-4.856,0.127-9.447,2.242-12.699,5.851
	l-26.212,29.096L322.859,161.7l25.05,25.05L474.791,70.378l29.096-26.212c3.609-3.251,5.725-7.843,5.851-12.699
	s-1.747-9.551-5.182-12.986L493.372,7.297z"/>
<path style="fill:#F18D46;" d="M381.307,238.685c-2.448,14.287-9.519,27.375-20.127,37.252c-7.062,7.15-21.892,20.48-41.666,37.429
	c-4.326,3.884-9.092,7.856-14.036,12.006c-13.065,11.034-27.719,23.128-43.432,35.751c-5.385,4.326-10.946,8.651-16.596,13.241
	h-0.088c-28.425,22.422-59.41,45.55-89.777,66.472h-0.088c-5.914,4.149-11.829,8.121-17.743,12.007
	C92.645,482.591,50.184,505.72,20.7,511.546c-5.672,1.08-11.51-0.718-15.592-4.8s-5.879-9.921-4.8-15.592
	c8.474-42.901,53.407-113.08,102.312-179.023c3.884-5.297,7.857-10.505,11.741-15.713c18.803-24.805,37.694-48.552,54.996-69.561
	c4.414-5.297,8.651-10.416,12.8-15.272c24.541-29.397,44.491-51.641,53.76-60.91c10.424-11.315,24.539-18.544,39.812-20.392
	c11.369-1.101,22.812,1.138,32.927,6.444c0.177,0,0.353,0.265,0.53,0.353c1.288,0.723,2.476,1.614,3.531,2.648l37.164,37.165
	l5.12,5.12l17.126,17.126c1.035,1.055,1.925,2.242,2.648,3.53c0.088,0.177,0.353,0.353,0.353,0.53
	C380.846,214.09,383.007,226.501,381.307,238.685L381.307,238.685z"/>
<g>
	<path style="fill:#FAC176;" d="M349.88,176.892c-1.271,2.543-2.94,4.868-4.943,6.885v0.088l-6.268,6.18
		c-3.447,3.413-9,3.413-12.447,0c-1.653-1.649-2.582-3.888-2.582-6.223s0.929-4.574,2.582-6.223l6.268-6.268
		c0.088-0.177,0.265-0.352,0.353-0.352c1.432-1.637,2.217-3.74,2.207-5.914c0.01-1.307-0.261-2.602-0.794-3.795L349.88,176.892z"/>
	<path style="fill:#FAC176;" d="M355,182.012c-1.163-0.533-2.428-0.804-3.708-0.794h-0.088c-2.367-0.032-4.64,0.928-6.268,2.648
		l-6.268,6.18l-4.767,4.766c-1.628,1.692-3.875,2.649-6.223,2.649s-4.595-0.956-6.223-2.649c-1.653-1.649-2.582-3.888-2.582-6.223
		s0.929-4.574,2.582-6.223l4.767-4.766l6.179-6.268h0.088c0.088-0.177,0.265-0.352,0.353-0.352c1.878-1.917,4.092-3.473,6.532-4.59
		l10.505,10.505L355,182.012z"/>
	<path style="fill:#FAC176;" d="M298.55,222.114c-1.595,0-3.16-0.435-4.526-1.259c-1.448-0.871-35.595-21.698-35.595-51.405
		c0-4.875,3.952-8.828,8.828-8.828s8.828,3.952,8.828,8.828c0,16.345,19.517,31.724,27.035,36.276c3.394,2.05,5.005,6.11,3.941,9.93
		C305.995,219.475,302.515,222.116,298.55,222.114L298.55,222.114z"/>
	<path style="fill:#FAC176;" d="M211.199,253.869c-1.618,2.641-4.495,4.247-7.592,4.237c-1.587,0.018-3.147-0.41-4.502-1.236
		c-12.129-7.538-22.319-17.819-29.749-30.014c4.414-5.297,8.651-10.416,12.8-15.272c5.115,12.637,14.272,23.222,26.041,30.102
		C212.347,244.253,213.681,249.668,211.199,253.869L211.199,253.869z"/>
	<path style="fill:#FAC176;" d="M319.514,313.366c-4.326,3.884-9.092,7.856-14.036,12.006c-9.734-7.081-18.032-15.949-24.452-26.13
		c-2.511-4.193-1.147-9.627,3.046-12.138s9.627-1.147,12.138,3.046C302.105,299.564,310.077,307.506,319.514,313.366
		L319.514,313.366z"/>
	<path style="fill:#FAC176;" d="M262.046,361.123c-5.385,4.326-10.946,8.651-16.596,13.241h-0.088
		c-13.581-7.37-25.017-18.137-33.192-31.249c-2.477-4.164-1.138-9.547,3.002-12.065s9.535-1.231,12.093,2.884
		c4.061,6.709,18.008,24.629,33.192,26.836C260.995,360.846,261.526,360.964,262.046,361.123z"/>
	<path style="fill:#FAC176;" d="M155.497,440.837c-5.914,4.149-11.829,8.121-17.743,12.006
		c-12.39-7.408-22.831-17.668-30.455-29.927c-1.23-1.996-1.605-4.402-1.04-6.677s2.021-4.227,4.041-5.416
		c4.174-2.472,9.56-1.136,12.094,3.001c3.884,6.356,17.037,23.481,31.691,26.57C154.57,440.489,155.044,440.637,155.497,440.837
		L155.497,440.837z"/>
	<path style="fill:#FAC176;" d="M140.314,337.466c-1.654,2.297-4.32,3.646-7.15,3.618c-1.844,0.014-3.641-0.575-5.12-1.677
		c-10.047-7.489-18.659-16.729-25.423-27.277c3.884-5.297,7.857-10.505,11.741-15.713c5.636,11.318,13.863,21.148,24.011,28.69
		C142.272,328.013,143.135,333.504,140.314,337.466L140.314,337.466z"/>
</g>
<g>
</g>
<g>
</g>
<g>
</g>
<g>
</g>
<g>
</g>
<g>
</g>
<g>
</g>
<g>
</g>
<g>
</g>
<g>
</g>
<g>
</g>
<g>
</g>
<g>
</g>
<g>
</g>
<g>
</g>
</svg>
