<?xml version="1.0" encoding="iso-8859-1"?>
<!-- Generator: Adobe Illustrator 19.0.0, SVG Export Plug-In . SVG Version: 6.00 Build 0)  -->
<svg version="1.1" id="Capa_1" xmlns="http://www.w3.org/2000/svg" xmlns:xlink="http://www.w3.org/1999/xlink" x="0px" y="0px"
	 viewBox="0 0 512 512" style="enable-background:new 0 0 512 512;" xml:space="preserve">
<g>
	<path style="fill:#C9CED1;" d="M322.7,256c-45.567-78.55-55.665-179.378-57.872-229.517h17.246
		c4.781,0.031,8.669,3.861,8.772,8.641c2.549,75.766,38.749,140.777,106.051,176.742c132.149,70.617,149.804,282.479-9.093,282.479
		c-20.368,0.304-40.628-3.001-59.844-9.761C382.02,434.316,363.371,326.111,322.7,256z"/>
	<g>
		<path style="fill:#8E9295;" d="M387.805,467.862l-2.293-0.018c-4.875-0.05-8.787-4.043-8.737-8.918
			c0.05-4.875,4.043-8.787,8.918-8.737l2.112,0.018c37.44,0,59.328-14.707,66.914-44.966c0.762-3.064,3.102-5.488,6.138-6.356
			c3.036-0.868,6.304-0.049,8.571,2.149c2.267,2.198,3.187,5.439,2.412,8.5C465.176,436.147,445.185,467.862,387.805,467.862z"/>
		<path style="fill:#8E9295;" d="M449.512,324.569c-3.362,0.006-6.434-1.9-7.922-4.914c-14.183-29.175-37.064-53.234-65.491-68.862
			c-2.789-1.484-4.572-4.344-4.677-7.501c-0.105-3.157,1.485-6.129,4.169-7.795c2.684-1.665,6.053-1.77,8.835-0.273
			c31.667,17.372,57.168,44.135,72.991,76.603c1.353,2.735,1.198,5.975-0.411,8.568S452.564,324.567,449.512,324.569
			L449.512,324.569z"/>
	</g>
	<path style="fill:#C9CED1;" d="M189.3,256c45.567-78.55,55.665-179.378,57.872-229.517h-17.246
		c-4.781,0.031-8.669,3.861-8.772,8.641c-2.549,75.766-38.749,140.777-106.051,176.742
		C-17.045,282.483-34.7,494.345,124.197,494.345c20.368,0.304,40.628-3.001,59.844-9.761C129.98,434.316,148.629,326.111,189.3,256z
		"/>
	<g>
		<path style="fill:#8E9295;" d="M91.766,282.483c-3.526-0.002-6.712-2.102-8.104-5.341c-1.393-3.239-0.725-6.996,1.699-9.556
			c12.24-12.991,26.498-23.919,42.224-32.362c12.803-6.827,24.934-14.845,36.233-23.948c3.795-3.061,9.352-2.467,12.414,1.328
			c3.061,3.795,2.467,9.352-1.328,12.414c-12.16,9.796-25.215,18.426-38.991,25.776c-14.054,7.551-26.798,17.321-37.741,28.931
			C96.508,281.489,94.19,282.487,91.766,282.483L91.766,282.483z"/>
		<path style="fill:#8E9295;" d="M124.197,458.732c-0.02,2.467-1.061,4.816-2.875,6.488c-1.815,1.672-4.241,2.517-6.702,2.334
			c-27.683-1.831-48.37-11.815-61.578-29.752c-1.875-2.541-2.25-5.889-0.984-8.781c1.266-2.893,3.979-4.889,7.118-5.237
			c3.138-0.348,6.223,1.007,8.091,3.553c10.02,13.608,26.461,21.203,48.938,22.625C120.756,450.336,124.245,454.165,124.197,458.732
			L124.197,458.732z"/>
	</g>
	<path style="fill:#F0F3F4;" d="M332.087,256c-51.921-89.503-57.798-207.97-58.414-247.367c-0.076-4.81-4.012-8.661-8.823-8.633
		h-17.802c-4.811-0.028-8.746,3.823-8.823,8.633C237.609,48.03,231.732,166.497,179.811,256
		c-54.383,93.748-69.435,255.638,76.138,256C401.522,511.638,386.47,349.748,332.087,256z"/>
	<g>
		<path style="fill:#C9CED1;" d="M255.975,485.517c-37.138-0.112-61.862-11.836-75.647-35.828
			c-10.922-21.883-15.133-46.507-12.104-70.776c0.376-4.861,4.622-8.497,9.483-8.121c4.861,0.376,8.497,4.622,8.121,9.483
			c-2.72,20.731,0.691,41.805,9.81,60.621c10.371,18.052,30.103,26.871,60.337,26.966c30.181-0.095,49.914-8.914,60.284-26.966
			c2.428-4.228,7.824-5.687,12.052-3.259s5.687,7.824,3.259,12.052C317.785,473.681,293.061,485.405,255.975,485.517z"/>
		<path style="fill:#C9CED1;" d="M333.984,379.586c-4.462-0.007-8.218-3.338-8.759-7.767c-4.309-32.95-14.944-64.757-31.319-93.672
			c-2.447-4.218-1.011-9.622,3.207-12.069c4.218-2.447,9.622-1.011,12.069,3.207c17.643,30.957,29.05,65.071,33.578,100.414
			c0.581,4.84-2.867,9.237-7.707,9.828C334.698,379.567,334.341,379.587,333.984,379.586z"/>
		<path style="fill:#C9CED1;" d="M187.484,335.448c-2.804-0.001-5.44-1.334-7.104-3.591c-1.663-2.257-2.156-5.17-1.327-7.848
			c5.838-19.061,13.775-37.415,23.664-54.724c9.536-16.598,17.768-33.911,24.62-51.784c1.133-2.951,3.757-5.071,6.88-5.559
			c3.123-0.488,6.269,0.731,8.248,3.195c1.979,2.465,2.489,5.799,1.338,8.743c-7.188,18.729-15.817,36.872-25.81,54.267
			c-9.224,16.161-16.629,33.294-22.078,51.086C194.768,332.927,191.352,335.446,187.484,335.448L187.484,335.448z"/>
	</g>
</g>
<g>
</g>
<g>
</g>
<g>
</g>
<g>
</g>
<g>
</g>
<g>
</g>
<g>
</g>
<g>
</g>
<g>
</g>
<g>
</g>
<g>
</g>
<g>
</g>
<g>
</g>
<g>
</g>
<g>
</g>
</svg>
