<?xml version="1.0" encoding="iso-8859-1"?>
<!-- Generator: Adobe Illustrator 19.0.0, SVG Export Plug-In . SVG Version: 6.00 Build 0)  -->
<svg version="1.1" id="Capa_1" xmlns="http://www.w3.org/2000/svg" xmlns:xlink="http://www.w3.org/1999/xlink" x="0px" y="0px"
	 viewBox="0 0 511.93 511.93" style="enable-background:new 0 0 511.93 511.93;" xml:space="preserve">
<g>
	<path style="fill:#FCCC88;" d="M372.457,420.692c-24.565,12.55-54.655,2.957-67.424-21.495
		c-6.598-9.37-13.925-18.205-21.912-26.424c-8.402-9.241-20.325-14.491-32.815-14.449c-12.49,0.042-24.377,5.371-32.718,14.667
		l-9.342,10.418c-11.234,12.459-23.702,23.747-37.215,33.689l-85.749,62.585c-19.466,19.513-51.062,19.563-70.589,0.111
		c-19.527-19.452-19.599-51.048-0.161-70.589l85.75-62.585l0.327-0.243c4.755-3.538,7.057-9.491,5.918-15.307
		c-1.138-5.816-5.514-10.463-11.252-11.947c0,0-47.073,8.456-58.95,5.367c-13.823-3.568-24.685-14.253-28.48-28.016
		c-3.795-13.763,0.057-28.505,10.099-38.652c10.042-10.148,24.742-14.154,38.544-10.505c11.781,3.021,60.746,37.106,73.646,37.762
		c20.851,1.214,41.003-7.731,54.089-24.01c3.82-4.402,6.336-9.782,7.265-15.535c0.555-5.766-1.198-11.518-4.875-15.994
		c-6.771-8.294-16.709-8.082-25.958-11.586c-5.373-2.215-10.08-5.784-13.662-10.361c-9.033-11.198-10.249-26.799-3.059-39.261
		c7.189-12.462,21.303-19.22,35.519-17.006c5.449,0.634,10.825,1.339,16.273,1.974c11.603,1.41,23.206,2.818,34.738,4.298
		c5.307,0.636,10.613,1.269,15.99,1.973c5.045,0.967,10.152,1.579,15.282,1.833c5.073-0.128,10.014-1.639,14.292-4.369
		c4.747-3.062,8.429-7.518,10.541-12.758c1.61-3.529,2.056-7.478,1.274-11.276c-1.161-4.191-3.704-7.867-7.217-10.431
		c-5.409-3.476-11.06-6.562-16.909-9.234c-8.007-4.649-15.646-9.903-22.852-15.717c-4.923-3.941-9.623-8.153-14.08-12.615
		c-7.486-7.477-11.708-17.612-11.745-28.192c0.042-9.688,3.556-19.04,9.905-26.358c7.832-8.187,18.659-12.834,29.988-12.874
		c11.33-0.04,22.188,4.531,30.078,12.662l41.601,41.441c3.694,3.662,8.727,5.652,13.927,5.505c5.2-0.146,10.113-2.416,13.595-6.28
		c17.446-17.461,45.022-19.581,64.932-4.992c19.91,14.589,26.197,41.523,14.804,63.419c-3.259,5.79-3.524,12.797-0.712,18.816
		c1.697,3.144,4.408,5.623,7.691,7.032c12.769,6.059,52.109,25.115,59.809,33.494c9.31,10.571,13.156,24.879,10.4,38.692
		c-7.217,39.186-54.83,46.022-77.046,21.778c-6.505-7.174-20.645-39.424-25.727-51.284c-1.349-3.516-3.917-6.43-7.236-8.21
		c-7.957-3.873-17.518-1.999-23.426,4.59l-48.605,54.34c-7.903,8.782-9.084,21.718-2.901,31.785c0,0,61.482,60.824,67.849,73.086
		c6.069,11.767,7.212,25.464,3.178,38.075C393.109,404.141,384.228,414.631,372.457,420.692z"/>
	<g>
		<path style="fill:#928170;" d="M357.264,158.821c-14.619-0.016-26.467-11.863-26.483-26.483c0-4.875,3.952-8.828,8.828-8.828
			s8.828,3.952,8.828,8.828c0.005,4.873,3.954,8.823,8.828,8.828c4.875,0,8.828,3.952,8.828,8.828
			C366.091,154.868,362.139,158.821,357.264,158.821L357.264,158.821z"/>
		<path style="fill:#928170;" d="M397.126,123.51c-14.619-0.016-26.467-11.863-26.483-26.483c0-4.875,3.952-8.828,8.828-8.828
			s8.828,3.952,8.828,8.828c0.005,4.873,3.954,8.823,8.828,8.828c4.875,0,8.828,3.952,8.828,8.828
			C405.953,119.558,402.001,123.51,397.126,123.51L397.126,123.51z"/>
		<path style="fill:#928170;" d="M324.983,202.958c-14.619-0.016-26.467-11.863-26.483-26.483c0-4.875,3.952-8.828,8.828-8.828
			s8.828,3.952,8.828,8.828c0.005,4.873,3.954,8.823,8.828,8.828c4.875,0,8.828,3.952,8.828,8.828
			C333.811,199.006,329.859,202.958,324.983,202.958z"/>
		<path style="fill:#928170;" d="M282.367,238.269c-14.619-0.016-26.467-11.863-26.483-26.483c0-4.875,3.952-8.828,8.828-8.828
			s8.828,3.952,8.828,8.828c0.005,4.873,3.954,8.823,8.828,8.828c4.875,0,8.828,3.952,8.828,8.828
			C291.195,234.317,287.242,238.269,282.367,238.269L282.367,238.269z"/>
		<path style="fill:#928170;" d="M256.32,282.407c-14.619-0.016-26.467-11.863-26.483-26.483c0-4.875,3.952-8.828,8.828-8.828
			c4.875,0,8.828,3.952,8.828,8.828c0.005,4.873,3.954,8.823,8.828,8.828c4.875,0,8.828,3.952,8.828,8.828
			C265.147,278.455,261.195,282.407,256.32,282.407L256.32,282.407z"/>
		<path style="fill:#928170;" d="M344.16,397.165c-4.875,0-8.828-3.952-8.828-8.828s3.952-8.828,8.828-8.828
			c4.873-0.005,8.823-3.954,8.828-8.828c0-4.875,3.952-8.828,8.828-8.828s8.828,3.952,8.828,8.828
			C370.627,385.302,358.78,397.149,344.16,397.165z"/>
		<path style="fill:#928170;" d="M202.927,202.958c-3.171,0.005-6.101-1.694-7.672-4.448c-2.427-4.222-7.809-5.69-12.043-3.284
			c-2.739,1.578-6.113,1.571-8.845-0.018c-2.732-1.589-4.406-4.519-4.388-7.68c0.018-3.161,1.725-6.071,4.475-7.63
			c6.097-3.488,13.33-4.409,20.107-2.561c6.776,1.848,12.54,6.314,16.023,12.414c1.56,2.731,1.549,6.085-0.028,8.806
			C208.978,201.278,206.072,202.955,202.927,202.958L202.927,202.958z"/>
		<path style="fill:#928170;" d="M467.746,238.269c-4.875,0-8.828-3.952-8.828-8.828c0-4.875,3.952-8.828,8.828-8.828
			c0-4.875,3.952-8.828,8.828-8.828s8.828,3.952,8.828,8.828C485.389,230.359,477.492,238.256,467.746,238.269z"/>
		<path style="fill:#928170;" d="M251.466,74.958c-2.341,0-4.586-0.93-6.241-2.585c-1.655-1.656-2.584-3.901-2.582-6.242
			c0.011-9.746,7.909-17.644,17.655-17.655c4.875,0,8.828,3.952,8.828,8.828s-3.952,8.828-8.828,8.828h-0.009
			c0.002,2.341-0.927,4.587-2.582,6.242C256.052,74.029,253.807,74.959,251.466,74.958z"/>
		<path style="fill:#928170;" d="M44.018,300.062c-2.341,0-4.586-0.93-6.241-2.585c-1.655-1.656-2.584-3.901-2.582-6.242
			c0.011-9.746,7.909-17.644,17.655-17.655c4.875,0,8.828,3.952,8.828,8.828s-3.952,8.828-8.828,8.828h-0.009
			c0.002,2.341-0.927,4.587-2.582,6.242S46.359,300.062,44.018,300.062L44.018,300.062z"/>
		<path style="fill:#928170;" d="M218.871,326.545c-14.619-0.016-26.467-11.863-26.483-26.483c0-4.875,3.952-8.828,8.828-8.828
			c4.875,0,8.828,3.952,8.828,8.828c0.005,4.873,3.954,8.823,8.828,8.828c4.875,0,8.828,3.952,8.828,8.828
			C227.699,322.592,223.746,326.545,218.871,326.545z"/>
		<path style="fill:#928170;" d="M178.833,361.855c-14.619-0.016-26.467-11.863-26.483-26.483c0-4.875,3.952-8.828,8.828-8.828
			s8.828,3.952,8.828,8.828c0.005,4.873,3.954,8.823,8.828,8.828c4.875,0,8.828,3.952,8.828,8.828S183.708,361.855,178.833,361.855
			L178.833,361.855z"/>
		<path style="fill:#928170;" d="M132.298,405.993c-14.619-0.016-26.467-11.863-26.483-26.483c0-4.875,3.952-8.828,8.828-8.828
			c4.875,0,8.828,3.952,8.828,8.828c0.005,4.873,3.954,8.823,8.828,8.828c4.875,0,8.828,3.952,8.828,8.828
			S137.173,405.993,132.298,405.993L132.298,405.993z"/>
		<path style="fill:#928170;" d="M88.16,441.303c-14.619-0.016-26.467-11.863-26.483-26.483c0-4.875,3.952-8.828,8.828-8.828
			c4.875,0,8.828,3.952,8.828,8.828c0.005,4.873,3.954,8.823,8.828,8.828c4.875,0,8.828,3.952,8.828,8.828
			S93.035,441.303,88.16,441.303z"/>
	</g>
</g>
<g>
</g>
<g>
</g>
<g>
</g>
<g>
</g>
<g>
</g>
<g>
</g>
<g>
</g>
<g>
</g>
<g>
</g>
<g>
</g>
<g>
</g>
<g>
</g>
<g>
</g>
<g>
</g>
<g>
</g>
</svg>
