<?xml version="1.0" encoding="iso-8859-1"?>
<!-- Generator: Adobe Illustrator 19.0.0, SVG Export Plug-In . SVG Version: 6.00 Build 0)  -->
<svg version="1.1" id="Capa_1" xmlns="http://www.w3.org/2000/svg" xmlns:xlink="http://www.w3.org/1999/xlink" x="0px" y="0px"
	 viewBox="0 0 512.024 512.024" style="enable-background:new 0 0 512.024 512.024;" xml:space="preserve">
<g transform="translate(-1)">
	<path style="fill:#23B972;" d="M355.552,107.355l76.707-76.707c3.311-3.311,7.802-5.171,12.484-5.171
		c4.682,0,9.173,1.86,12.484,5.171l25.149,25.149c3.311,3.311,5.171,7.802,5.171,12.484s-1.86,9.173-5.171,12.484l-76.707,76.707"/>
	<path style="fill:#5D9069;" d="M309.99,52.966v150.069h185.379c9.751,0,17.655-7.904,17.655-17.655v-35.31
		c0-9.751-7.905-17.655-17.655-17.655H380.611V17.655C380.611,7.905,372.706,0,362.955,0h-35.31
		c-9.751,0-17.655,7.904-17.655,17.655V52.966"/>
	<path style="fill:#23B972;" d="M387.231,168.519h57.379c9.751,0,17.655,7.904,17.655,17.655v33.633
		c0,9.751-7.904,17.655-17.655,17.655h-66.03c-25.478,0.003-49.942,9.985-68.149,27.807l-22.069,22.069l-62.676-62.676
		l22.069-22.069c17.822-18.207,27.804-42.671,27.807-68.149v-66.03c0-9.751,7.905-17.655,17.655-17.655h34.251
		c9.751,0,17.655,7.904,17.655,17.655v100.723"/>
	<path style="fill:#C7D9C2;" d="M300.632,274.979L93.891,481.722l-14.83,22.422c-2.673,3.988-6.844,6.725-11.566,7.59
		c-4.722,0.865-9.593-0.217-13.505-2.999l-17.037-12.182c-7.886-5.678-14.802-12.594-20.481-20.48L4.291,459.035
		c-2.782-3.912-3.864-8.783-3-13.505c0.865-4.722,3.602-8.893,7.59-11.566l22.421-14.83l206.743-206.742L300.632,274.979z"/>
	<g>
		<path style="fill:#FFFFFF;" d="M226.516,282.849c-3.57-0.001-6.788-2.152-8.154-5.45c-1.366-3.298-0.611-7.094,1.913-9.619
			l12.483-12.483c3.453-3.41,9.012-3.392,12.443,0.039c3.432,3.432,3.449,8.99,0.039,12.443l-12.482,12.483
			C231.104,281.921,228.858,282.852,226.516,282.849z"/>
		<path style="fill:#FFFFFF;" d="M151.611,357.755c-3.57-0.001-6.788-2.152-8.154-5.45c-1.366-3.298-0.611-7.094,1.913-9.619
			l12.483-12.483c3.447-3.447,9.036-3.447,12.483,0c3.447,3.447,3.447,9.036,0,12.483l-12.483,12.483
			C156.199,356.827,153.952,357.757,151.611,357.755z"/>
		<path style="fill:#FFFFFF;" d="M201.55,332.785c-3.57-0.001-6.788-2.152-8.154-5.45c-1.366-3.298-0.611-7.094,1.913-9.619
			l12.483-12.483c3.447-3.447,9.036-3.447,12.483,0c3.447,3.447,3.447,9.036,0,12.483l-12.483,12.483
			C206.138,331.857,203.892,332.788,201.55,332.785L201.55,332.785z"/>
	</g>
</g>
<g>
</g>
<g>
</g>
<g>
</g>
<g>
</g>
<g>
</g>
<g>
</g>
<g>
</g>
<g>
</g>
<g>
</g>
<g>
</g>
<g>
</g>
<g>
</g>
<g>
</g>
<g>
</g>
<g>
</g>
</svg>
