<?xml version="1.0" encoding="iso-8859-1"?>
<!-- Generator: Adobe Illustrator 19.0.0, SVG Export Plug-In . SVG Version: 6.00 Build 0)  -->
<svg version="1.1" id="Capa_1" xmlns="http://www.w3.org/2000/svg" xmlns:xlink="http://www.w3.org/1999/xlink" x="0px" y="0px"
	 viewBox="0 0 512 512" style="enable-background:new 0 0 512 512;" xml:space="preserve">
<g transform="translate(-1)">
	<g>
		<path style="fill:#F0F3F4;" d="M328.176,298.615c-7.133-14.151-8.04-30.636-2.502-45.484c7.693-20.688-4.674-46.963-4.674-46.963
			H193c0,0-12.367,26.275-4.674,46.963c5.538,14.848,4.631,31.333-2.502,45.484c-15.893,31.515-34.551,84.042-3.455,115.559h149.263
			C362.728,382.657,344.07,330.13,328.176,298.615z"/>
		<path style="fill:#F0F3F4;" d="M201.816,448.261c-9.529-1.468-18.712-4.655-27.102-9.404v45.714c0,0,18.286,27.429,82.286,27.429
			s82.286-27.429,82.286-27.429v-45.714c-10.091,5.637-21.227,9.155-32.725,10.337C272.086,457.374,236.14,457.053,201.816,448.261
			L201.816,448.261z"/>
	</g>
	<g>
		<path style="fill:#C9CED1;" d="M321,166.14v-21.423c0-4.85,1.927-9.501,5.356-12.93c7.141-7.141,7.141-18.719,0-25.86L321,100.571
			H193l-5.356,5.356c-7.141,7.141-7.141,18.719,0,25.86c3.429,3.429,5.356,8.08,5.356,12.93v21.423c0,4.85-1.927,9.501-5.356,12.93
			c-7.141,7.141-7.141,18.719,0,25.86l5.356,5.356h128l5.356-5.356c7.141-7.141,7.141-18.719,0-25.86
			C322.927,175.641,321,170.99,321,166.14z"/>
		<path style="fill:#C9CED1;" d="M339.286,448c18.286-18.286-9.143-36.571-9.143-36.571H183.857c0,0-27.429,18.286-9.143,36.571
			C227.37,469.978,286.63,469.978,339.286,448z"/>
		<path style="fill:#C9CED1;" d="M257,365.714h-18.286c-5.049,0-9.143-4.093-9.143-9.143c0-5.049,4.093-9.143,9.143-9.143H257
			c5.049,0,9.143-4.093,9.143-9.143c0-5.049-4.093-9.143-9.143-9.143c-15.148,0-27.429-12.28-27.429-27.429
			s12.28-27.429,27.429-27.429h18.286c5.049,0,9.143,4.093,9.143,9.143c0,5.049-4.093,9.143-9.143,9.143H257
			c-5.049,0-9.143,4.093-9.143,9.143c0,5.049,4.093,9.143,9.143,9.143c15.148,0,27.429,12.28,27.429,27.429
			S272.148,365.714,257,365.714z"/>
	</g>
	<path style="fill:#F0F3F4;" d="M337.232,35.508C315.795,14.163,287.213,1.514,257,0c-30.213,1.514-58.795,14.163-80.232,35.508
		c-11.142,12.881-14.387,30.808-8.465,46.777c4.549,13.714,15.92,27.429,43.211,27.429h90.971c27.291,0,38.663-13.714,43.211-27.429
		C351.618,66.316,348.374,48.39,337.232,35.508z"/>
	<g>
		<path style="fill:#C9CED1;" d="M211.286,64c-3.697-0.001-7.03-2.228-8.445-5.644c-1.415-3.416-0.633-7.348,1.981-9.963
			l9.143-9.143c3.579-3.515,9.322-3.489,12.87,0.058c3.547,3.547,3.573,9.29,0.058,12.87l-9.143,9.143
			C216.037,63.039,213.711,64.003,211.286,64L211.286,64z"/>
		<path style="fill:#C9CED1;" d="M302.714,64c-2.425,0.003-4.752-0.961-6.464-2.679l-9.143-9.143
			c-3.515-3.579-3.489-9.322,0.058-12.87s9.29-3.573,12.87-0.058l9.143,9.143c2.614,2.615,3.396,6.547,1.981,9.963
			C309.744,61.772,306.412,63.999,302.714,64z"/>
		<path style="fill:#C9CED1;" d="M257,82.286c-2.425,0.001-4.752-0.961-6.467-2.676c-1.715-1.715-2.678-4.041-2.676-6.467V64
			c0-5.049,4.093-9.143,9.143-9.143c5.049,0,9.143,4.093,9.143,9.143v9.143c0.001,2.425-0.961,4.752-2.676,6.467
			C261.752,81.324,259.425,82.287,257,82.286z"/>
	</g>
	<path style="fill:#F0F3F4;" d="M321,144.717c0.016-2.617,0.596-5.201,1.7-7.574H191.3c1.104,2.373,1.684,4.956,1.7,7.574v21.424
		c-0.016,2.617-0.596,5.201-1.7,7.574H322.7c-1.104-2.373-1.684-4.956-1.7-7.574V144.717L321,144.717z"/>
</g>
<g>
</g>
<g>
</g>
<g>
</g>
<g>
</g>
<g>
</g>
<g>
</g>
<g>
</g>
<g>
</g>
<g>
</g>
<g>
</g>
<g>
</g>
<g>
</g>
<g>
</g>
<g>
</g>
<g>
</g>
</svg>
