<?xml version="1.0" encoding="iso-8859-1"?>
<!-- Generator: Adobe Illustrator 19.0.0, SVG Export Plug-In . SVG Version: 6.00 Build 0)  -->
<svg version="1.1" id="Capa_1" xmlns="http://www.w3.org/2000/svg" xmlns:xlink="http://www.w3.org/1999/xlink" x="0px" y="0px"
	 viewBox="0 0 512 512" style="enable-background:new 0 0 512 512;" xml:space="preserve">
<path style="fill:#A5A5A4;" d="M441.379,105.931v300.138c0,58.504-47.427,105.931-105.931,105.931H176.552
	c-58.504,0-105.931-47.427-105.931-105.931V105.931C70.621,47.427,118.048,0,176.552,0h158.897
	C393.952,0,441.379,47.427,441.379,105.931z"/>
<path style="fill:#E6E7E8;" d="M176.552,35.31h158.897c39.003,0,70.621,31.618,70.621,70.621v300.138
	c0,39.003-31.618,70.621-70.621,70.621H176.552c-39.003,0-70.621-31.618-70.621-70.621V105.931
	C105.931,66.928,137.549,35.31,176.552,35.31z"/>
<path style="fill:#D1D4D1;" d="M361.931,291.31v17.655c0.02,37.869-20.172,72.869-52.966,91.807H203.034
	c-8.022-4.651-15.41-10.318-21.981-16.861c-19.892-19.862-31.044-46.836-30.985-74.946V291.31H361.931z"/>
<path style="fill:#A5A5A4;" d="M203.034,303.713h105.931v111.184c0,14.626-11.857,26.483-26.483,26.483h-52.966
	c-14.626,0-26.483-11.857-26.483-26.483V303.713H203.034z"/>
<path style="fill:#BDC3C7;" d="M105.931,176.552h300.138v17.655c0,68.255-55.331,123.586-123.586,123.586h-52.966
	c-68.255,0-123.586-55.331-123.586-123.586V176.552z"/>
<g>
	<path style="fill:#FFFFFF;" d="M271.448,361.931h-30.897c-4.875,0-8.828-3.952-8.828-8.828s3.952-8.828,8.828-8.828h30.897
		c4.875,0,8.828,3.952,8.828,8.828S276.324,361.931,271.448,361.931z"/>
	<path style="fill:#FFFFFF;" d="M256,220.69c-2.337-0.035-4.575-0.949-6.268-2.56c-0.798-0.844-1.427-1.833-1.854-2.914
		c-0.452-1.061-0.692-2.2-0.706-3.354c0.015-0.562,0.072-1.123,0.172-1.677c0.086-0.586,0.266-1.153,0.535-1.681
		c0.175-0.543,0.443-1.05,0.793-1.5c0.303-0.506,0.658-0.978,1.06-1.41c2.083-2.07,5.061-2.964,7.94-2.383
		c0.586,0.081,1.154,0.259,1.681,0.526c0.542,0.177,1.05,0.447,1.5,0.797c0.526,0.353,0.974,0.707,1.414,1.06
		c1.612,1.693,2.526,3.931,2.561,6.267c-0.014,1.153-0.254,2.293-0.707,3.353c-0.406,1.091-1.038,2.084-1.854,2.914
		c-0.433,0.401-0.907,0.755-1.414,1.056c-0.45,0.351-0.958,0.62-1.5,0.797c-0.528,0.266-1.096,0.445-1.681,0.53
		C257.12,220.614,256.561,220.673,256,220.69z"/>
	<path style="fill:#FFFFFF;" d="M220.69,220.69c-2.34-0.017-4.585-0.933-6.268-2.56c-0.353-0.444-0.707-0.884-1.06-1.414
		c-0.352-0.449-0.62-0.957-0.793-1.5c-0.255-0.501-0.435-1.037-0.535-1.591c-0.1-0.583-0.157-1.172-0.172-1.763
		c0.031-2.338,0.945-4.577,2.56-6.268c2.536-2.509,6.333-3.242,9.621-1.858c1.07,0.45,2.055,1.078,2.915,1.858
		c1.611,1.693,2.525,3.931,2.56,6.268c-0.013,0.592-0.074,1.181-0.181,1.763c-0.093,0.554-0.27,1.09-0.526,1.591
		c-0.176,0.542-0.445,1.049-0.793,1.5c-0.353,0.53-0.707,0.97-1.06,1.414c-0.86,0.777-1.846,1.404-2.914,1.854
		C222.982,220.436,221.843,220.676,220.69,220.69z"/>
	<path style="fill:#FFFFFF;" d="M185.379,220.69c-1.153-0.014-2.293-0.254-3.353-0.707c-1.08-0.428-2.069-1.057-2.914-1.854
		c-0.378-0.421-0.732-0.862-1.06-1.323c-0.336-0.492-0.603-1.027-0.793-1.591c-0.255-0.501-0.435-1.037-0.535-1.591
		c-0.143-0.576-0.201-1.17-0.172-1.763c-0.009-2.346,0.911-4.599,2.56-6.268c0.844-0.8,1.833-1.43,2.914-1.858
		c3.289-1.375,7.081-0.642,9.621,1.858c1.611,1.693,2.525,3.931,2.56,6.268c-0.013,0.592-0.074,1.181-0.181,1.763
		c-0.093,0.554-0.27,1.09-0.526,1.591c-0.194,0.562-0.461,1.097-0.793,1.591c-0.353,0.44-0.707,0.879-1.06,1.323
		c-0.44,0.353-0.888,0.707-1.328,1.056c-0.491,0.335-1.024,0.603-1.586,0.797c-0.5,0.252-1.035,0.431-1.586,0.53
		C186.562,220.61,185.972,220.669,185.379,220.69z"/>
	<path style="fill:#FFFFFF;" d="M150.069,220.69c-2.34-0.017-4.585-0.933-6.268-2.56c-1.614-1.691-2.529-3.93-2.56-6.268
		c-0.033-1.159,0.21-2.31,0.707-3.358c0.426-1.08,1.055-2.067,1.854-2.91c3.539-3.267,8.995-3.267,12.534,0
		c0.779,0.857,1.406,1.841,1.854,2.91c0.453,1.062,0.693,2.203,0.706,3.358c0.023,2.348-0.9,4.607-2.56,6.267
		C154.676,219.79,152.417,220.712,150.069,220.69L150.069,220.69z"/>
	<path style="fill:#FFFFFF;" d="M291.31,220.69c-0.564-0.016-1.126-0.075-1.681-0.177c-0.583-0.085-1.147-0.264-1.672-0.53
		c-0.565-0.194-1.101-0.462-1.595-0.797c-0.461-0.324-0.902-0.677-1.319-1.056c-1.614-1.691-2.529-3.93-2.56-6.268
		c-0.033-1.159,0.21-2.31,0.707-3.358c0.426-1.08,1.055-2.067,1.854-2.91l1.319-1.06c0.494-0.335,1.03-0.604,1.595-0.797
		c0.524-0.267,1.09-0.445,1.672-0.526c1.102-0.267,2.252-0.267,3.353,0c0.586,0.081,1.154,0.259,1.681,0.526
		c0.542,0.177,1.05,0.447,1.5,0.797c0.526,0.353,0.974,0.707,1.414,1.06c0.798,0.842,1.428,1.83,1.854,2.91
		c0.453,1.062,0.693,2.203,0.706,3.358c-0.035,2.337-0.949,4.574-2.56,6.268c-0.433,0.401-0.907,0.755-1.414,1.056
		c-0.45,0.351-0.958,0.62-1.5,0.797c-0.528,0.266-1.096,0.445-1.681,0.53C292.431,220.615,291.872,220.674,291.31,220.69
		L291.31,220.69z"/>
	<path style="fill:#FFFFFF;" d="M256,291.31c-3.569-0.014-6.782-2.168-8.151-5.465s-0.626-7.092,1.883-9.631
		c2.106-2.031,5.063-2.919,7.94-2.383c0.586,0.081,1.154,0.259,1.681,0.526c0.542,0.177,1.05,0.447,1.5,0.797
		c0.526,0.353,0.974,0.707,1.414,1.06c1.612,1.693,2.526,3.931,2.561,6.267c-0.018,2.34-0.935,4.584-2.56,6.268
		c-0.44,0.353-0.888,0.707-1.414,1.056c-0.45,0.351-0.958,0.62-1.5,0.797c-0.528,0.266-1.096,0.445-1.681,0.53
		C257.12,291.235,256.561,291.294,256,291.31z"/>
	<path style="fill:#FFFFFF;" d="M220.69,291.31c-2.337-0.035-4.575-0.949-6.268-2.56c-0.798-0.844-1.427-1.833-1.854-2.914
		c-0.943-2.138-0.943-4.573,0-6.711c0.448-1.068,1.075-2.052,1.854-2.909c2.556-2.47,6.329-3.198,9.621-1.858
		c2.215,0.807,3.96,2.552,4.767,4.767c0.943,2.138,0.943,4.573,0,6.711c-0.427,1.08-1.056,2.069-1.854,2.914
		c-0.86,0.777-1.845,1.404-2.914,1.854C222.981,291.056,221.843,291.296,220.69,291.31L220.69,291.31z"/>
	<path style="fill:#FFFFFF;" d="M291.31,291.31c-0.564-0.016-1.126-0.075-1.681-0.177c-0.583-0.085-1.147-0.264-1.672-0.53
		c-0.565-0.194-1.101-0.462-1.595-0.797c-0.44-0.35-0.879-0.703-1.319-1.056c-0.779-0.859-1.406-1.844-1.854-2.914
		c-0.497-1.047-0.739-2.196-0.706-3.354c0.031-2.338,0.945-4.577,2.56-6.268l1.319-1.06c0.494-0.335,1.03-0.604,1.595-0.797
		c0.524-0.267,1.09-0.445,1.672-0.526c1.102-0.267,2.252-0.267,3.353,0c0.586,0.081,1.154,0.259,1.681,0.526
		c0.542,0.177,1.05,0.447,1.5,0.797c0.526,0.353,0.974,0.707,1.414,1.06c1.612,1.693,2.526,3.931,2.561,6.268
		c-0.014,1.153-0.254,2.293-0.707,3.353c-0.448,1.07-1.075,2.055-1.854,2.914c-0.44,0.353-0.888,0.707-1.414,1.056
		c-0.45,0.351-0.958,0.62-1.5,0.797c-0.528,0.266-1.096,0.445-1.681,0.53C292.43,291.235,291.871,291.294,291.31,291.31z"/>
	<path style="fill:#FFFFFF;" d="M326.621,220.69c-2.337-0.035-4.575-0.949-6.268-2.56c-0.798-0.844-1.427-1.833-1.854-2.914
		c-0.943-2.138-0.943-4.573,0-6.711c0.448-1.068,1.075-2.052,1.854-2.91c2.083-2.07,5.061-2.964,7.94-2.383
		c0.586,0.081,1.154,0.259,1.681,0.526c0.562,0.194,1.095,0.462,1.586,0.797c0.464,0.325,0.908,0.679,1.328,1.06
		c0.779,0.857,1.406,1.841,1.854,2.909c0.453,1.062,0.693,2.203,0.706,3.358c-0.035,2.337-0.949,4.574-2.56,6.268
		c-0.42,0.379-0.863,0.732-1.328,1.056c-0.491,0.335-1.024,0.603-1.586,0.797c-0.528,0.266-1.096,0.445-1.681,0.53
		C327.741,220.615,327.182,220.674,326.621,220.69z"/>
	<path style="fill:#FFFFFF;" d="M361.931,220.69c-0.593-0.016-1.183-0.075-1.767-0.177c-0.552-0.098-1.086-0.277-1.586-0.53
		c-0.565-0.194-1.101-0.462-1.595-0.797c-0.44-0.35-0.879-0.703-1.319-1.056c-1.614-1.691-2.529-3.93-2.56-6.268
		c0.019-0.592,0.076-1.183,0.172-1.767c0.1-0.553,0.28-1.089,0.534-1.591c0.192-0.562,0.458-1.096,0.793-1.586
		c0.326-0.463,0.68-0.905,1.06-1.324c2.083-2.07,5.061-2.964,7.94-2.383c0.586,0.081,1.154,0.259,1.681,0.526
		c0.542,0.177,1.05,0.447,1.5,0.797c0.526,0.353,0.974,0.707,1.414,1.06c3.414,3.481,3.414,9.054,0,12.534
		c-0.44,0.353-0.888,0.707-1.414,1.056c-0.45,0.351-0.958,0.62-1.5,0.797c-0.528,0.266-1.096,0.445-1.681,0.53
		C363.051,220.614,362.492,220.673,361.931,220.69z"/>
	<path style="fill:#FFFFFF;" d="M238.345,256c-4.163-0.041-7.72-3.011-8.502-7.1s1.427-8.162,5.281-9.736s8.283-0.213,10.588,3.255
		c2.304,3.467,1.844,8.078-1.1,11.022c-0.44,0.353-0.888,0.707-1.328,1.056c-0.491,0.335-1.024,0.603-1.586,0.797
		c-0.5,0.252-1.035,0.431-1.586,0.53C239.528,255.925,238.937,255.984,238.345,256L238.345,256z"/>
	<path style="fill:#FFFFFF;" d="M203.034,256c-2.337-0.035-4.575-0.949-6.268-2.56c-0.779-0.859-1.406-1.844-1.854-2.914
		c-0.943-2.138-0.943-4.573,0-6.711c0.448-1.068,1.075-2.052,1.854-2.91c2.536-2.509,6.333-3.242,9.621-1.858
		c2.215,0.807,3.96,2.552,4.767,4.767c0.943,2.138,0.943,4.573,0,6.711c-0.448,1.07-1.075,2.055-1.854,2.914
		c-0.86,0.777-1.845,1.404-2.914,1.854C205.34,255.788,204.192,256.03,203.034,256L203.034,256z"/>
	<path style="fill:#FFFFFF;" d="M167.724,256c-2.34-0.017-4.585-0.933-6.268-2.56c-3.055-2.995-3.562-7.734-1.212-11.308
		c2.351-3.575,6.902-4.986,10.863-3.368c3.961,1.618,6.223,5.812,5.399,10.01C175.682,252.972,172.002,256,167.724,256L167.724,256z
		"/>
	<path style="fill:#FFFFFF;" d="M273.655,256c-1.158,0.03-2.306-0.212-3.353-0.707c-3.363-1.271-5.558-4.526-5.474-8.121
		c0.014-1.155,0.254-2.296,0.707-3.358c0.448-1.068,1.075-2.052,1.854-2.91c0.844-0.8,1.833-1.43,2.914-1.858
		c3.297-1.284,7.039-0.562,9.621,1.857c0.779,0.857,1.406,1.841,1.854,2.909c0.453,1.062,0.693,2.203,0.706,3.358
		c-0.018,2.34-0.935,4.584-2.56,6.268c-0.44,0.353-0.888,0.707-1.414,1.056c-0.45,0.351-0.958,0.62-1.5,0.797
		c-0.528,0.266-1.096,0.445-1.681,0.53C274.776,255.925,274.216,255.984,273.655,256z"/>
	<path style="fill:#FFFFFF;" d="M308.966,256c-2.337-0.035-4.575-0.949-6.268-2.56c-0.779-0.859-1.406-1.844-1.854-2.914
		c-0.497-1.047-0.739-2.196-0.706-3.354c0.031-2.338,0.945-4.577,2.56-6.268c2.083-2.07,5.061-2.964,7.94-2.383
		c0.586,0.081,1.154,0.259,1.681,0.526c0.562,0.194,1.095,0.462,1.586,0.797c0.44,0.353,0.888,0.707,1.328,1.06
		c1.625,1.684,2.542,3.927,2.561,6.267c-0.014,1.153-0.254,2.293-0.707,3.353c-0.427,1.08-1.056,2.069-1.854,2.914
		C313.539,255.05,311.302,255.964,308.966,256z"/>
	<path style="fill:#FFFFFF;" d="M344.276,256c-0.593-0.016-1.183-0.075-1.767-0.177c-0.552-0.098-1.086-0.277-1.586-0.53
		c-0.565-0.194-1.101-0.462-1.595-0.797c-0.44-0.35-0.879-0.703-1.319-1.056c-0.378-0.421-0.732-0.862-1.06-1.323
		c-0.336-0.492-0.603-1.027-0.793-1.591c-0.255-0.501-0.435-1.037-0.535-1.591c-0.096-0.583-0.153-1.172-0.172-1.763
		c0.031-2.338,0.945-4.577,2.56-6.268l1.319-1.06c0.494-0.335,1.03-0.604,1.595-0.797c0.499-0.254,1.034-0.431,1.587-0.526
		c2.905-0.536,5.892,0.35,8.035,2.383c3.414,3.481,3.414,9.054,0,12.534c-0.44,0.353-0.888,0.707-1.414,1.056
		c-0.45,0.351-0.958,0.62-1.5,0.797c-0.528,0.266-1.096,0.445-1.681,0.53C345.396,255.924,344.837,255.984,344.276,256z"/>
</g>
<path style="fill:#F09372;" d="M238.345,176.552c0-44.074-24.437-82.228-38.637-100.679c-2.231-3.285-5.944-5.252-9.914-5.252
	s-7.684,1.967-9.914,5.252c-14.2,18.45-38.637,56.604-38.637,100.679"/>
<path style="fill:#F5EFCA;" d="M176.552,150.069c-3.569-0.014-6.782-2.168-8.151-5.464c-1.369-3.297-0.626-7.093,1.883-9.631
	c2.536-2.509,6.333-3.242,9.621-1.858c1.07,0.45,2.055,1.078,2.915,1.858c3.414,3.481,3.414,9.054,0,12.534
	c-0.86,0.777-1.845,1.404-2.914,1.854C178.845,149.815,177.705,150.055,176.552,150.069L176.552,150.069z"/>
<path style="fill:#F09372;" d="M370.759,176.552c0-44.074-24.437-82.228-38.637-100.679c-2.231-3.285-5.944-5.252-9.914-5.252
	c-3.971,0-7.684,1.967-9.914,5.252c-14.2,18.45-38.637,56.604-38.637,100.679"/>
<path style="fill:#F5EFCA;" d="M308.966,150.069c-0.593-0.016-1.183-0.075-1.767-0.177c-0.552-0.098-1.086-0.277-1.586-0.53
	c-0.565-0.194-1.101-0.462-1.595-0.797c-0.44-0.35-0.879-0.703-1.319-1.056c-0.378-0.421-0.732-0.862-1.06-1.323
	c-0.336-0.492-0.603-1.027-0.793-1.591c-0.255-0.501-0.435-1.037-0.535-1.591c-0.1-0.583-0.157-1.172-0.172-1.763
	c-0.033-1.159,0.21-2.31,0.707-3.358c0.426-1.08,1.055-2.067,1.854-2.909c3.539-3.267,8.995-3.267,12.534,0
	c0.799,0.842,1.428,1.83,1.854,2.909c0.453,1.062,0.693,2.203,0.706,3.358c-0.013,0.592-0.074,1.181-0.181,1.763
	c-0.093,0.554-0.27,1.09-0.526,1.591c-0.194,0.562-0.461,1.097-0.793,1.591c-0.328,0.461-0.682,0.903-1.06,1.324
	c-0.44,0.353-0.888,0.707-1.328,1.056c-0.491,0.335-1.024,0.603-1.586,0.797c-0.528,0.266-1.096,0.445-1.681,0.53
	C310.086,149.994,309.527,150.053,308.966,150.069z"/>
<path style="fill:#FFFFFF;" d="M256,406.069c-2.337-0.035-4.575-0.949-6.268-2.56c-0.378-0.421-0.732-0.862-1.06-1.323
	c-0.336-0.491-0.603-1.027-0.793-1.591c-0.255-0.501-0.435-1.037-0.535-1.591c-0.1-0.583-0.157-1.172-0.172-1.763
	c0.031-2.338,0.945-4.577,2.56-6.268c2.106-2.031,5.063-2.919,7.94-2.383c0.586,0.081,1.154,0.259,1.681,0.526
	c0.542,0.177,1.05,0.447,1.5,0.797c0.526,0.353,0.974,0.707,1.414,1.06c1.612,1.693,2.526,3.931,2.561,6.267
	c-0.018,2.34-0.935,4.584-2.56,6.268c-0.44,0.353-0.888,0.707-1.414,1.056c-0.45,0.351-0.958,0.62-1.5,0.797
	c-0.528,0.266-1.096,0.445-1.681,0.53C257.12,405.994,256.561,406.053,256,406.069L256,406.069z"/>
<g>
</g>
<g>
</g>
<g>
</g>
<g>
</g>
<g>
</g>
<g>
</g>
<g>
</g>
<g>
</g>
<g>
</g>
<g>
</g>
<g>
</g>
<g>
</g>
<g>
</g>
<g>
</g>
<g>
</g>
</svg>
