<?xml version="1.0" encoding="iso-8859-1"?>
<!-- Generator: Adobe Illustrator 19.0.0, SVG Export Plug-In . SVG Version: 6.00 Build 0)  -->
<svg version="1.1" id="Capa_1" xmlns="http://www.w3.org/2000/svg" xmlns:xlink="http://www.w3.org/1999/xlink" x="0px" y="0px"
	 viewBox="0 0 512 512" style="enable-background:new 0 0 512 512;" xml:space="preserve">
<g>
	<path style="fill:#936642;" d="M328.34,291.819c-7.219-10.732-8.188-24.493-2.543-36.131c4.583-12.414,3.324-26.233-3.427-37.614
		l5.554-5.554c7.405-7.406,7.405-19.412,0-26.818c-3.556-3.556-5.554-8.379-5.554-13.409v-4.305
		c12.475-3.651,22.276-13.335,26.074-25.767c6.171-16.565,2.785-35.178-8.823-48.51c-17.67-17.626-40.173-29.615-64.659-34.448
		V35.296c11.289-3.285,18.963-9.332,18.963-16.333C293.926,8.49,276.946,0,256,0s-37.926,8.49-37.926,18.963
		c0,7.001,7.674,13.048,18.963,16.333v23.969c-24.486,4.833-46.988,16.822-64.659,34.448c-11.608,13.331-14.993,31.944-8.823,48.509
		c3.799,12.431,13.599,22.116,26.074,25.767v4.305c0,5.029-1.998,9.853-5.554,13.409c-7.405,7.406-7.405,19.412,0,26.818
		l5.554,5.554c-6.751,11.381-8.01,25.2-3.427,37.614c5.645,11.637,4.676,25.399-2.543,36.131
		c-16.153,31.605-35.116,84.28-3.512,115.885c0,0-28.444,18.963-9.481,37.926v37.926c0,0,18.963,28.444,85.333,28.444
		s85.333-28.444,85.333-28.444V445.63c18.963-18.963-9.481-37.926-9.481-37.926C363.457,376.098,344.494,323.424,328.34,291.819z"/>
	<g>
		<path style="fill:#603E26;" d="M327.925,185.702c-3.556-3.556-5.554-8.379-5.554-13.409v-4.441H189.63v4.441
			c0,5.029-1.998,9.853-5.554,13.409c-7.405,7.406-7.405,19.412,0,26.818l5.554,5.554H322.37l5.554-5.554
			C335.33,205.114,335.33,193.108,327.925,185.702L327.925,185.702z"/>
		<path style="fill:#603E26;" d="M256,256h-18.963c-2.515-0.001-4.927,0.998-6.705,2.776c-1.778,1.778-2.777,4.19-2.776,6.705
			v75.852c0,5.236,4.245,9.481,9.481,9.481s9.481-4.245,9.481-9.481v-28.444H256c15.709,0,28.444-12.735,28.444-28.444
			C284.444,268.735,271.709,256,256,256z M256,293.926h-9.481v-18.963H256c5.236,0,9.481,4.245,9.481,9.482
			C265.481,289.681,261.236,293.926,256,293.926z"/>
		<rect x="237.037" y="35.233" style="fill:#603E26;" width="37.926" height="24.149"/>
		<path style="fill:#603E26;" d="M341.333,445.63c18.963-18.963-9.481-37.926-9.481-37.926H180.148c0,0-28.444,18.963-9.481,37.926
			C225.273,468.422,286.727,468.422,341.333,445.63z"/>
	</g>
</g>
<g>
</g>
<g>
</g>
<g>
</g>
<g>
</g>
<g>
</g>
<g>
</g>
<g>
</g>
<g>
</g>
<g>
</g>
<g>
</g>
<g>
</g>
<g>
</g>
<g>
</g>
<g>
</g>
<g>
</g>
</svg>
